<mxfile host="Electron" agent="Mozilla/5.0 (Macintosh; Intel Mac OS X 10_15_7) AppleWebKit/537.36 (KHTML, like Gecko) draw.io/26.0.16 Chrome/132.0.6834.196 Electron/34.2.0 Safari/537.36" version="26.0.16" pages="2">
  <diagram name="第 1 页" id="Sk251JYBscbsObHA3xSf">
    <mxGraphModel dx="2415" dy="988" grid="1" gridSize="10" guides="1" tooltips="1" connect="1" arrows="1" fold="1" page="1" pageScale="1" pageWidth="827" pageHeight="1169" math="0" shadow="0">
      <root>
        <mxCell id="0" />
        <mxCell id="1" parent="0" />
        <mxCell id="K_XwMHUMVquwX1VhCljE-30" value="" style="rounded=0;whiteSpace=wrap;html=1;" parent="1" vertex="1">
          <mxGeometry x="1654" y="3410" width="1480" height="1040" as="geometry" />
        </mxCell>
        <mxCell id="w3Y4UFnjGA6J7m3BMMHb-66" value="" style="rounded=0;whiteSpace=wrap;html=1;" parent="1" vertex="1">
          <mxGeometry x="2544" y="3500" width="520" height="420" as="geometry" />
        </mxCell>
        <mxCell id="w3Y4UFnjGA6J7m3BMMHb-32" value="" style="rounded=0;whiteSpace=wrap;html=1;" parent="1" vertex="1">
          <mxGeometry x="1734" y="3500" width="680" height="370" as="geometry" />
        </mxCell>
        <mxCell id="atEdzv3-3XpUn_zMzmd4-98" value="" style="rounded=0;whiteSpace=wrap;html=1;" parent="1" vertex="1">
          <mxGeometry x="-269" y="1060" width="1550" height="630" as="geometry" />
        </mxCell>
        <mxCell id="atEdzv3-3XpUn_zMzmd4-2" value="&lt;font style=&quot;font-size: 22px;&quot;&gt;IDLE&lt;/font&gt;" style="ellipse;whiteSpace=wrap;html=1;" parent="1" vertex="1">
          <mxGeometry x="110" y="360" width="160" height="80" as="geometry" />
        </mxCell>
        <mxCell id="atEdzv3-3XpUn_zMzmd4-3" value="&lt;span style=&quot;font-size: 22px;&quot;&gt;SEQ_FETCH&lt;/span&gt;" style="ellipse;whiteSpace=wrap;html=1;" parent="1" vertex="1">
          <mxGeometry x="80" y="620" width="220" height="80" as="geometry" />
        </mxCell>
        <mxCell id="atEdzv3-3XpUn_zMzmd4-5" value="&lt;span style=&quot;font-size: 22px;&quot;&gt;BLOCK&lt;/span&gt;" style="ellipse;whiteSpace=wrap;html=1;" parent="1" vertex="1">
          <mxGeometry x="80" y="850" width="220" height="80" as="geometry" />
        </mxCell>
        <mxCell id="atEdzv3-3XpUn_zMzmd4-7" value="&lt;span style=&quot;font-size: 22px;&quot;&gt;FORCE&lt;/span&gt;" style="ellipse;whiteSpace=wrap;html=1;" parent="1" vertex="1">
          <mxGeometry x="-290" y="620" width="220" height="80" as="geometry" />
        </mxCell>
        <mxCell id="atEdzv3-3XpUn_zMzmd4-17" value="&lt;font style=&quot;font-size: 32px;&quot;&gt;IDLE&lt;/font&gt;" style="text;html=1;align=center;verticalAlign=middle;whiteSpace=wrap;rounded=0;" parent="1" vertex="1">
          <mxGeometry x="930" y="360" width="60" height="30" as="geometry" />
        </mxCell>
        <mxCell id="atEdzv3-3XpUn_zMzmd4-18" value="" style="endArrow=classic;html=1;rounded=0;" parent="1" edge="1">
          <mxGeometry width="50" height="50" relative="1" as="geometry">
            <mxPoint x="1010" y="380" as="sourcePoint" />
            <mxPoint x="1090" y="380" as="targetPoint" />
          </mxGeometry>
        </mxCell>
        <mxCell id="atEdzv3-3XpUn_zMzmd4-19" value="&lt;font style=&quot;font-size: 32px;&quot;&gt;SEQ_FETCH:&lt;/font&gt;" style="text;html=1;align=center;verticalAlign=middle;whiteSpace=wrap;rounded=0;" parent="1" vertex="1">
          <mxGeometry x="1170" y="360" width="60" height="30" as="geometry" />
        </mxCell>
        <mxCell id="atEdzv3-3XpUn_zMzmd4-20" value="&lt;span style=&quot;font-size: 32px;&quot;&gt;reset 释放掉&lt;/span&gt;" style="text;html=1;align=center;verticalAlign=middle;whiteSpace=wrap;rounded=0;" parent="1" vertex="1">
          <mxGeometry x="1370" y="360" width="200" height="30" as="geometry" />
        </mxCell>
        <mxCell id="atEdzv3-3XpUn_zMzmd4-21" value="&lt;span style=&quot;font-size: 32px;&quot;&gt;FORCE:&lt;/span&gt;" style="text;html=1;align=center;verticalAlign=middle;whiteSpace=wrap;rounded=0;" parent="1" vertex="1">
          <mxGeometry x="1210" y="470" width="60" height="30" as="geometry" />
        </mxCell>
        <mxCell id="atEdzv3-3XpUn_zMzmd4-22" value="" style="endArrow=classic;html=1;rounded=0;" parent="1" edge="1">
          <mxGeometry width="50" height="50" relative="1" as="geometry">
            <mxPoint x="1080" y="490" as="sourcePoint" />
            <mxPoint x="1160" y="490" as="targetPoint" />
          </mxGeometry>
        </mxCell>
        <mxCell id="atEdzv3-3XpUn_zMzmd4-23" value="&lt;font style=&quot;font-size: 32px;&quot;&gt;SEQ_FETCH&lt;/font&gt;" style="text;html=1;align=center;verticalAlign=middle;whiteSpace=wrap;rounded=0;" parent="1" vertex="1">
          <mxGeometry x="950" y="470" width="60" height="30" as="geometry" />
        </mxCell>
        <mxCell id="atEdzv3-3XpUn_zMzmd4-24" value="&lt;span style=&quot;font-size: 32px;&quot;&gt;发生分支预测失败，或者异常/中断，或者本身pfu检测到下一个命令可能是返回栈的地址，需要强制跳转到某个pc&lt;/span&gt;" style="text;html=1;align=center;verticalAlign=middle;whiteSpace=wrap;rounded=0;" parent="1" vertex="1">
          <mxGeometry x="1340" y="470" width="460" height="30" as="geometry" />
        </mxCell>
        <mxCell id="atEdzv3-3XpUn_zMzmd4-25" value="&lt;span style=&quot;font-size: 32px;&quot;&gt;SEQ_FETCH：&lt;/span&gt;" style="text;html=1;align=center;verticalAlign=middle;whiteSpace=wrap;rounded=0;" parent="1" vertex="1">
          <mxGeometry x="1221" y="570" width="60" height="30" as="geometry" />
        </mxCell>
        <mxCell id="atEdzv3-3XpUn_zMzmd4-26" value="" style="endArrow=classic;html=1;rounded=0;" parent="1" edge="1">
          <mxGeometry width="50" height="50" relative="1" as="geometry">
            <mxPoint x="1050" y="590" as="sourcePoint" />
            <mxPoint x="1130" y="590" as="targetPoint" />
          </mxGeometry>
        </mxCell>
        <mxCell id="atEdzv3-3XpUn_zMzmd4-27" value="&lt;font style=&quot;font-size: 32px;&quot;&gt;FORCE&lt;/font&gt;" style="text;html=1;align=center;verticalAlign=middle;whiteSpace=wrap;rounded=0;" parent="1" vertex="1">
          <mxGeometry x="920" y="570" width="60" height="30" as="geometry" />
        </mxCell>
        <mxCell id="atEdzv3-3XpUn_zMzmd4-28" value="&lt;span style=&quot;font-size: 32px;&quot;&gt;无强制跳转flag&lt;/span&gt;" style="text;html=1;align=center;verticalAlign=middle;whiteSpace=wrap;rounded=0;" parent="1" vertex="1">
          <mxGeometry x="1360" y="570" width="460" height="30" as="geometry" />
        </mxCell>
        <mxCell id="atEdzv3-3XpUn_zMzmd4-29" value="&lt;span style=&quot;font-size: 32px;&quot;&gt;BLOCK：&lt;/span&gt;" style="text;html=1;align=center;verticalAlign=middle;whiteSpace=wrap;rounded=0;" parent="1" vertex="1">
          <mxGeometry x="1231" y="665" width="60" height="30" as="geometry" />
        </mxCell>
        <mxCell id="atEdzv3-3XpUn_zMzmd4-30" value="" style="endArrow=classic;html=1;rounded=0;" parent="1" edge="1">
          <mxGeometry width="50" height="50" relative="1" as="geometry">
            <mxPoint x="1060" y="685" as="sourcePoint" />
            <mxPoint x="1140" y="685" as="targetPoint" />
          </mxGeometry>
        </mxCell>
        <mxCell id="atEdzv3-3XpUn_zMzmd4-31" value="&lt;font style=&quot;font-size: 32px;&quot;&gt;any&lt;/font&gt;" style="text;html=1;align=center;verticalAlign=middle;whiteSpace=wrap;rounded=0;" parent="1" vertex="1">
          <mxGeometry x="930" y="665" width="60" height="30" as="geometry" />
        </mxCell>
        <mxCell id="atEdzv3-3XpUn_zMzmd4-32" value="&lt;span style=&quot;font-size: 32px;&quot;&gt;stall flag被置起&lt;/span&gt;" style="text;html=1;align=center;verticalAlign=middle;whiteSpace=wrap;rounded=0;" parent="1" vertex="1">
          <mxGeometry x="1350" y="665" width="460" height="30" as="geometry" />
        </mxCell>
        <mxCell id="atEdzv3-3XpUn_zMzmd4-33" value="&lt;span style=&quot;font-size: 32px;&quot;&gt;IDLE&lt;/span&gt;" style="text;html=1;align=center;verticalAlign=middle;whiteSpace=wrap;rounded=0;" parent="1" vertex="1">
          <mxGeometry x="1231" y="760" width="60" height="30" as="geometry" />
        </mxCell>
        <mxCell id="atEdzv3-3XpUn_zMzmd4-34" value="" style="endArrow=classic;html=1;rounded=0;" parent="1" edge="1">
          <mxGeometry width="50" height="50" relative="1" as="geometry">
            <mxPoint x="1060" y="780" as="sourcePoint" />
            <mxPoint x="1140" y="780" as="targetPoint" />
          </mxGeometry>
        </mxCell>
        <mxCell id="atEdzv3-3XpUn_zMzmd4-35" value="&lt;font style=&quot;font-size: 32px;&quot;&gt;any&lt;/font&gt;" style="text;html=1;align=center;verticalAlign=middle;whiteSpace=wrap;rounded=0;" parent="1" vertex="1">
          <mxGeometry x="930" y="760" width="60" height="30" as="geometry" />
        </mxCell>
        <mxCell id="atEdzv3-3XpUn_zMzmd4-36" value="&lt;span style=&quot;font-size: 32px;&quot;&gt;pfu的reset被置起&lt;/span&gt;" style="text;html=1;align=center;verticalAlign=middle;whiteSpace=wrap;rounded=0;" parent="1" vertex="1">
          <mxGeometry x="1350" y="760" width="460" height="30" as="geometry" />
        </mxCell>
        <mxCell id="atEdzv3-3XpUn_zMzmd4-38" value="&lt;font style=&quot;font-size: 22px;&quot;&gt;mux&lt;/font&gt;" style="shape=trapezoid;perimeter=trapezoidPerimeter;whiteSpace=wrap;html=1;fixedSize=1;rotation=90;" parent="1" vertex="1">
          <mxGeometry x="90" y="1360" width="120" height="60" as="geometry" />
        </mxCell>
        <mxCell id="atEdzv3-3XpUn_zMzmd4-39" value="&lt;font style=&quot;font-size: 22px;&quot;&gt;FSM&lt;/font&gt;" style="rounded=0;whiteSpace=wrap;html=1;" parent="1" vertex="1">
          <mxGeometry x="90" y="1150" width="120" height="60" as="geometry" />
        </mxCell>
        <mxCell id="atEdzv3-3XpUn_zMzmd4-40" value="" style="endArrow=classic;html=1;rounded=0;" parent="1" edge="1">
          <mxGeometry width="50" height="50" relative="1" as="geometry">
            <mxPoint y="1360" as="sourcePoint" />
            <mxPoint x="120" y="1360" as="targetPoint" />
          </mxGeometry>
        </mxCell>
        <mxCell id="atEdzv3-3XpUn_zMzmd4-41" value="&lt;font style=&quot;font-size: 22px;&quot;&gt;pc+4&lt;/font&gt;" style="text;html=1;align=center;verticalAlign=middle;whiteSpace=wrap;rounded=0;fontFamily=Helvetica;fontSize=12;fontColor=default;" parent="1" vertex="1">
          <mxGeometry x="20" y="1330" width="60" height="30" as="geometry" />
        </mxCell>
        <mxCell id="atEdzv3-3XpUn_zMzmd4-42" value="" style="endArrow=classic;html=1;rounded=0;" parent="1" edge="1">
          <mxGeometry width="50" height="50" relative="1" as="geometry">
            <mxPoint x="-50" y="1400" as="sourcePoint" />
            <mxPoint x="120" y="1400" as="targetPoint" />
          </mxGeometry>
        </mxCell>
        <mxCell id="atEdzv3-3XpUn_zMzmd4-43" value="&lt;span style=&quot;font-size: 22px;&quot;&gt;BRANCH&lt;/span&gt;" style="ellipse;whiteSpace=wrap;html=1;" parent="1" vertex="1">
          <mxGeometry x="430" y="620" width="220" height="80" as="geometry" />
        </mxCell>
        <mxCell id="atEdzv3-3XpUn_zMzmd4-46" value="" style="endArrow=classic;html=1;rounded=0;entryX=1;entryY=0;entryDx=0;entryDy=0;exitX=0;exitY=0;exitDx=0;exitDy=0;" parent="1" source="atEdzv3-3XpUn_zMzmd4-3" target="atEdzv3-3XpUn_zMzmd4-7" edge="1">
          <mxGeometry width="50" height="50" relative="1" as="geometry">
            <mxPoint x="420" y="490" as="sourcePoint" />
            <mxPoint x="470" y="440" as="targetPoint" />
          </mxGeometry>
        </mxCell>
        <mxCell id="atEdzv3-3XpUn_zMzmd4-47" value="" style="endArrow=classic;html=1;rounded=0;exitX=1;exitY=1;exitDx=0;exitDy=0;entryX=0;entryY=1;entryDx=0;entryDy=0;" parent="1" source="atEdzv3-3XpUn_zMzmd4-7" target="atEdzv3-3XpUn_zMzmd4-3" edge="1">
          <mxGeometry width="50" height="50" relative="1" as="geometry">
            <mxPoint x="420" y="490" as="sourcePoint" />
            <mxPoint x="470" y="440" as="targetPoint" />
            <Array as="points">
              <mxPoint y="688" />
            </Array>
          </mxGeometry>
        </mxCell>
        <mxCell id="atEdzv3-3XpUn_zMzmd4-49" value="" style="endArrow=classic;html=1;rounded=0;exitX=1;exitY=1;exitDx=0;exitDy=0;entryX=0;entryY=1;entryDx=0;entryDy=0;" parent="1" source="atEdzv3-3XpUn_zMzmd4-3" target="atEdzv3-3XpUn_zMzmd4-43" edge="1">
          <mxGeometry width="50" height="50" relative="1" as="geometry">
            <mxPoint x="270" y="600" as="sourcePoint" />
            <mxPoint x="320" y="550" as="targetPoint" />
          </mxGeometry>
        </mxCell>
        <mxCell id="atEdzv3-3XpUn_zMzmd4-50" value="" style="endArrow=classic;html=1;rounded=0;exitX=0;exitY=0;exitDx=0;exitDy=0;entryX=1;entryY=0;entryDx=0;entryDy=0;" parent="1" source="atEdzv3-3XpUn_zMzmd4-43" target="atEdzv3-3XpUn_zMzmd4-3" edge="1">
          <mxGeometry width="50" height="50" relative="1" as="geometry">
            <mxPoint x="270" y="600" as="sourcePoint" />
            <mxPoint x="320" y="550" as="targetPoint" />
          </mxGeometry>
        </mxCell>
        <mxCell id="atEdzv3-3XpUn_zMzmd4-51" value="" style="endArrow=classic;html=1;rounded=0;exitX=0.5;exitY=1;exitDx=0;exitDy=0;entryX=0.5;entryY=0;entryDx=0;entryDy=0;" parent="1" source="atEdzv3-3XpUn_zMzmd4-2" target="atEdzv3-3XpUn_zMzmd4-3" edge="1">
          <mxGeometry width="50" height="50" relative="1" as="geometry">
            <mxPoint x="270" y="600" as="sourcePoint" />
            <mxPoint x="320" y="550" as="targetPoint" />
          </mxGeometry>
        </mxCell>
        <mxCell id="atEdzv3-3XpUn_zMzmd4-53" value="" style="endArrow=classic;startArrow=classic;html=1;rounded=0;entryX=0.5;entryY=1;entryDx=0;entryDy=0;exitX=0;exitY=0;exitDx=0;exitDy=0;strokeColor=default;align=center;verticalAlign=middle;fontFamily=Helvetica;fontSize=11;fontColor=default;labelBackgroundColor=default;" parent="1" source="atEdzv3-3XpUn_zMzmd4-5" target="atEdzv3-3XpUn_zMzmd4-7" edge="1">
          <mxGeometry width="50" height="50" relative="1" as="geometry">
            <mxPoint x="220" y="850" as="sourcePoint" />
            <mxPoint x="270" y="800" as="targetPoint" />
          </mxGeometry>
        </mxCell>
        <mxCell id="atEdzv3-3XpUn_zMzmd4-54" value="" style="endArrow=classic;startArrow=classic;html=1;rounded=0;exitX=0.5;exitY=0;exitDx=0;exitDy=0;entryX=0.5;entryY=1;entryDx=0;entryDy=0;" parent="1" source="atEdzv3-3XpUn_zMzmd4-5" target="atEdzv3-3XpUn_zMzmd4-3" edge="1">
          <mxGeometry width="50" height="50" relative="1" as="geometry">
            <mxPoint x="220" y="850" as="sourcePoint" />
            <mxPoint x="270" y="800" as="targetPoint" />
          </mxGeometry>
        </mxCell>
        <mxCell id="atEdzv3-3XpUn_zMzmd4-55" value="" style="endArrow=classic;startArrow=classic;html=1;rounded=0;exitX=1;exitY=0;exitDx=0;exitDy=0;entryX=0.5;entryY=1;entryDx=0;entryDy=0;" parent="1" source="atEdzv3-3XpUn_zMzmd4-5" target="atEdzv3-3XpUn_zMzmd4-43" edge="1">
          <mxGeometry width="50" height="50" relative="1" as="geometry">
            <mxPoint x="300" y="860" as="sourcePoint" />
            <mxPoint x="300" y="710" as="targetPoint" />
          </mxGeometry>
        </mxCell>
        <mxCell id="atEdzv3-3XpUn_zMzmd4-57" value="" style="curved=1;endArrow=classic;html=1;rounded=0;exitX=0.5;exitY=0;exitDx=0;exitDy=0;entryX=0.5;entryY=0;entryDx=0;entryDy=0;" parent="1" source="atEdzv3-3XpUn_zMzmd4-7" target="atEdzv3-3XpUn_zMzmd4-43" edge="1">
          <mxGeometry width="50" height="50" relative="1" as="geometry">
            <mxPoint x="220" y="560" as="sourcePoint" />
            <mxPoint x="270" y="510" as="targetPoint" />
            <Array as="points">
              <mxPoint x="200" y="490" />
            </Array>
          </mxGeometry>
        </mxCell>
        <mxCell id="atEdzv3-3XpUn_zMzmd4-58" value="" style="curved=1;endArrow=classic;html=1;rounded=0;entryX=0.716;entryY=0.966;entryDx=0;entryDy=0;entryPerimeter=0;exitX=0.296;exitY=0.966;exitDx=0;exitDy=0;exitPerimeter=0;" parent="1" source="atEdzv3-3XpUn_zMzmd4-43" target="atEdzv3-3XpUn_zMzmd4-7" edge="1">
          <mxGeometry width="50" height="50" relative="1" as="geometry">
            <mxPoint x="220" y="640" as="sourcePoint" />
            <mxPoint x="270" y="590" as="targetPoint" />
            <Array as="points">
              <mxPoint x="190" y="770" />
            </Array>
          </mxGeometry>
        </mxCell>
        <mxCell id="atEdzv3-3XpUn_zMzmd4-59" value="&lt;span style=&quot;font-size: 22px;&quot;&gt;return_pc&lt;/span&gt;" style="text;html=1;align=center;verticalAlign=middle;whiteSpace=wrap;rounded=0;fontFamily=Helvetica;fontSize=12;fontColor=default;" parent="1" vertex="1">
          <mxGeometry x="30" y="1370" width="60" height="30" as="geometry" />
        </mxCell>
        <mxCell id="atEdzv3-3XpUn_zMzmd4-60" value="" style="endArrow=classic;html=1;rounded=0;" parent="1" edge="1">
          <mxGeometry width="50" height="50" relative="1" as="geometry">
            <mxPoint y="1440" as="sourcePoint" />
            <mxPoint x="120" y="1440" as="targetPoint" />
          </mxGeometry>
        </mxCell>
        <mxCell id="atEdzv3-3XpUn_zMzmd4-61" value="&lt;span style=&quot;font-size: 22px;&quot;&gt;force_pc&lt;/span&gt;" style="text;html=1;align=center;verticalAlign=middle;whiteSpace=wrap;rounded=0;fontFamily=Helvetica;fontSize=12;fontColor=default;" parent="1" vertex="1">
          <mxGeometry x="30" y="1410" width="60" height="30" as="geometry" />
        </mxCell>
        <mxCell id="atEdzv3-3XpUn_zMzmd4-62" value="" style="endArrow=classic;html=1;rounded=0;" parent="1" edge="1">
          <mxGeometry width="50" height="50" relative="1" as="geometry">
            <mxPoint x="180" y="1389.83" as="sourcePoint" />
            <mxPoint x="240" y="1520" as="targetPoint" />
            <Array as="points">
              <mxPoint x="240" y="1390" />
            </Array>
          </mxGeometry>
        </mxCell>
        <mxCell id="atEdzv3-3XpUn_zMzmd4-63" value="" style="endArrow=classic;html=1;rounded=0;exitX=0.5;exitY=1;exitDx=0;exitDy=0;entryX=0;entryY=0.5;entryDx=0;entryDy=0;" parent="1" source="atEdzv3-3XpUn_zMzmd4-39" target="atEdzv3-3XpUn_zMzmd4-38" edge="1">
          <mxGeometry width="50" height="50" relative="1" as="geometry">
            <mxPoint x="200" y="1350" as="sourcePoint" />
            <mxPoint x="250" y="1300" as="targetPoint" />
          </mxGeometry>
        </mxCell>
        <mxCell id="atEdzv3-3XpUn_zMzmd4-64" value="&lt;span style=&quot;font-size: 22px;&quot;&gt;pfu_addr&lt;/span&gt;" style="text;html=1;align=center;verticalAlign=middle;whiteSpace=wrap;rounded=0;fontFamily=Helvetica;fontSize=12;fontColor=default;" parent="1" vertex="1">
          <mxGeometry x="210" y="1360" width="60" height="30" as="geometry" />
        </mxCell>
        <mxCell id="atEdzv3-3XpUn_zMzmd4-65" value="&lt;font style=&quot;font-size: 22px;&quot;&gt;AHB_Master&lt;/font&gt;" style="rounded=0;whiteSpace=wrap;html=1;strokeColor=default;align=center;verticalAlign=middle;fontFamily=Helvetica;fontSize=12;fontColor=default;fillColor=default;" parent="1" vertex="1">
          <mxGeometry x="170" y="1520" width="140" height="60" as="geometry" />
        </mxCell>
        <mxCell id="atEdzv3-3XpUn_zMzmd4-67" value="&lt;span style=&quot;font-size: 22px;&quot;&gt;ahb_intf&lt;/span&gt;" style="text;html=1;align=center;verticalAlign=middle;whiteSpace=wrap;rounded=0;fontFamily=Helvetica;fontSize=12;fontColor=default;" parent="1" vertex="1">
          <mxGeometry x="260" y="1600" width="60" height="30" as="geometry" />
        </mxCell>
        <mxCell id="atEdzv3-3XpUn_zMzmd4-68" value="" style="endArrow=classic;startArrow=classic;html=1;rounded=0;" parent="1" edge="1">
          <mxGeometry width="50" height="50" relative="1" as="geometry">
            <mxPoint x="240" y="1640" as="sourcePoint" />
            <mxPoint x="240" y="1580" as="targetPoint" />
          </mxGeometry>
        </mxCell>
        <mxCell id="atEdzv3-3XpUn_zMzmd4-70" value="&lt;font style=&quot;font-size: 22px;&quot;&gt;pre_decode&lt;/font&gt;" style="rounded=0;whiteSpace=wrap;html=1;strokeColor=default;align=center;verticalAlign=middle;fontFamily=Helvetica;fontSize=12;fontColor=default;fillColor=default;" parent="1" vertex="1">
          <mxGeometry x="440" y="1505" width="290" height="90" as="geometry" />
        </mxCell>
        <mxCell id="atEdzv3-3XpUn_zMzmd4-71" value="" style="endArrow=classic;html=1;rounded=0;exitX=1;exitY=0.5;exitDx=0;exitDy=0;entryX=0;entryY=0.5;entryDx=0;entryDy=0;" parent="1" edge="1">
          <mxGeometry width="50" height="50" relative="1" as="geometry">
            <mxPoint x="310" y="1535" as="sourcePoint" />
            <mxPoint x="440" y="1535" as="targetPoint" />
          </mxGeometry>
        </mxCell>
        <mxCell id="atEdzv3-3XpUn_zMzmd4-72" value="" style="endArrow=classic;html=1;rounded=0;exitX=1;exitY=0.5;exitDx=0;exitDy=0;" parent="1" edge="1">
          <mxGeometry width="50" height="50" relative="1" as="geometry">
            <mxPoint x="480" y="1505" as="sourcePoint" />
            <mxPoint x="480" y="1425" as="targetPoint" />
          </mxGeometry>
        </mxCell>
        <mxCell id="atEdzv3-3XpUn_zMzmd4-74" value="&lt;span style=&quot;font-size: 22px;&quot;&gt;branch&lt;/span&gt;" style="text;html=1;align=center;verticalAlign=middle;whiteSpace=wrap;rounded=0;fontFamily=Helvetica;fontSize=12;fontColor=default;" parent="1" vertex="1">
          <mxGeometry x="410" y="1450" width="60" height="30" as="geometry" />
        </mxCell>
        <mxCell id="atEdzv3-3XpUn_zMzmd4-75" value="" style="endArrow=classic;html=1;rounded=0;exitX=1;exitY=0.5;exitDx=0;exitDy=0;" parent="1" edge="1">
          <mxGeometry width="50" height="50" relative="1" as="geometry">
            <mxPoint x="550" y="1505" as="sourcePoint" />
            <mxPoint x="550" y="1425" as="targetPoint" />
          </mxGeometry>
        </mxCell>
        <mxCell id="atEdzv3-3XpUn_zMzmd4-76" value="&lt;span style=&quot;font-size: 22px;&quot;&gt;push&lt;br&gt;（j &amp;amp; rd= ra）&lt;/span&gt;" style="text;html=1;align=center;verticalAlign=middle;whiteSpace=wrap;rounded=0;fontFamily=Helvetica;fontSize=12;fontColor=default;" parent="1" vertex="1">
          <mxGeometry x="530" y="1450" width="150" height="30" as="geometry" />
        </mxCell>
        <mxCell id="atEdzv3-3XpUn_zMzmd4-77" value="" style="endArrow=classic;html=1;rounded=0;exitX=1;exitY=0.5;exitDx=0;exitDy=0;" parent="1" edge="1">
          <mxGeometry width="50" height="50" relative="1" as="geometry">
            <mxPoint x="670" y="1505" as="sourcePoint" />
            <mxPoint x="670" y="1425" as="targetPoint" />
          </mxGeometry>
        </mxCell>
        <mxCell id="atEdzv3-3XpUn_zMzmd4-78" value="&lt;div&gt;&lt;span style=&quot;font-size: 22px;&quot;&gt;pop&lt;/span&gt;&lt;/div&gt;&lt;span style=&quot;font-size: 22px;&quot;&gt;（j &amp;amp; rs= ra）&lt;/span&gt;" style="text;html=1;align=center;verticalAlign=middle;whiteSpace=wrap;rounded=0;fontFamily=Helvetica;fontSize=12;fontColor=default;" parent="1" vertex="1">
          <mxGeometry x="650" y="1450" width="150" height="30" as="geometry" />
        </mxCell>
        <mxCell id="atEdzv3-3XpUn_zMzmd4-79" value="" style="endArrow=classic;html=1;rounded=0;exitX=1;exitY=0.5;exitDx=0;exitDy=0;entryX=-0.007;entryY=0.394;entryDx=0;entryDy=0;entryPerimeter=0;" parent="1" target="atEdzv3-3XpUn_zMzmd4-80" edge="1">
          <mxGeometry width="50" height="50" relative="1" as="geometry">
            <mxPoint x="730" y="1535" as="sourcePoint" />
            <mxPoint x="830" y="1535.5" as="targetPoint" />
          </mxGeometry>
        </mxCell>
        <mxCell id="atEdzv3-3XpUn_zMzmd4-80" value="&lt;font style=&quot;font-size: 22px;&quot;&gt;inst_queue&lt;/font&gt;" style="rounded=0;whiteSpace=wrap;html=1;strokeColor=default;align=center;verticalAlign=middle;fontFamily=Helvetica;fontSize=12;fontColor=default;fillColor=default;" parent="1" vertex="1">
          <mxGeometry x="827" y="1500" width="193" height="90" as="geometry" />
        </mxCell>
        <mxCell id="atEdzv3-3XpUn_zMzmd4-83" value="" style="endArrow=classic;html=1;rounded=0;exitX=1;exitY=0.5;exitDx=0;exitDy=0;" parent="1" edge="1">
          <mxGeometry width="50" height="50" relative="1" as="geometry">
            <mxPoint x="1020" y="1560" as="sourcePoint" />
            <mxPoint x="1240" y="1560" as="targetPoint" />
          </mxGeometry>
        </mxCell>
        <mxCell id="atEdzv3-3XpUn_zMzmd4-86" value="&lt;span style=&quot;font-size: 22px;&quot;&gt;inst_o&lt;/span&gt;" style="text;html=1;align=center;verticalAlign=middle;whiteSpace=wrap;rounded=0;fontFamily=Helvetica;fontSize=12;fontColor=default;" parent="1" vertex="1">
          <mxGeometry x="1161" y="1530" width="60" height="30" as="geometry" />
        </mxCell>
        <mxCell id="atEdzv3-3XpUn_zMzmd4-87" value="&lt;span style=&quot;font-size: 22px;&quot;&gt;ras_buffer&lt;/span&gt;" style="rounded=0;whiteSpace=wrap;html=1;" parent="1" vertex="1">
          <mxGeometry x="-170" y="1370" width="120" height="60" as="geometry" />
        </mxCell>
        <mxCell id="atEdzv3-3XpUn_zMzmd4-88" value="" style="endArrow=classic;html=1;rounded=0;entryX=0.25;entryY=0;entryDx=0;entryDy=0;exitX=1;exitY=0;exitDx=0;exitDy=0;" parent="1" edge="1">
          <mxGeometry width="50" height="50" relative="1" as="geometry">
            <mxPoint x="-250" y="1390" as="sourcePoint" />
            <mxPoint x="-170" y="1390" as="targetPoint" />
          </mxGeometry>
        </mxCell>
        <mxCell id="atEdzv3-3XpUn_zMzmd4-89" value="&lt;span style=&quot;font-size: 22px;&quot;&gt;pop&lt;/span&gt;" style="text;html=1;align=center;verticalAlign=middle;whiteSpace=wrap;rounded=0;fontFamily=Helvetica;fontSize=12;fontColor=default;" parent="1" vertex="1">
          <mxGeometry x="-240" y="1360" width="60" height="30" as="geometry" />
        </mxCell>
        <mxCell id="atEdzv3-3XpUn_zMzmd4-90" value="&lt;span style=&quot;font-size: 22px;&quot;&gt;inst&lt;/span&gt;" style="text;html=1;align=center;verticalAlign=middle;whiteSpace=wrap;rounded=0;fontFamily=Helvetica;fontSize=12;fontColor=default;" parent="1" vertex="1">
          <mxGeometry x="340" y="1505" width="60" height="30" as="geometry" />
        </mxCell>
        <mxCell id="atEdzv3-3XpUn_zMzmd4-91" value="" style="endArrow=classic;html=1;rounded=0;entryX=0;entryY=0.75;entryDx=0;entryDy=0;" parent="1" edge="1">
          <mxGeometry width="50" height="50" relative="1" as="geometry">
            <mxPoint x="-250" y="1420" as="sourcePoint" />
            <mxPoint x="-170" y="1420" as="targetPoint" />
          </mxGeometry>
        </mxCell>
        <mxCell id="atEdzv3-3XpUn_zMzmd4-95" value="&lt;span style=&quot;font-size: 22px;&quot;&gt;pc&lt;/span&gt;" style="text;html=1;align=center;verticalAlign=middle;whiteSpace=wrap;rounded=0;fontFamily=Helvetica;fontSize=12;fontColor=default;" parent="1" vertex="1">
          <mxGeometry x="-240" y="1390" width="60" height="30" as="geometry" />
        </mxCell>
        <mxCell id="atEdzv3-3XpUn_zMzmd4-96" value="" style="endArrow=classic;html=1;rounded=0;entryX=0.5;entryY=0;entryDx=0;entryDy=0;exitX=0;exitY=0;exitDx=0;exitDy=0;" parent="1" source="atEdzv3-3XpUn_zMzmd4-97" target="atEdzv3-3XpUn_zMzmd4-87" edge="1">
          <mxGeometry width="50" height="50" relative="1" as="geometry">
            <mxPoint x="-110" y="1290" as="sourcePoint" />
            <mxPoint x="-90" y="1310" as="targetPoint" />
          </mxGeometry>
        </mxCell>
        <mxCell id="atEdzv3-3XpUn_zMzmd4-97" value="&lt;span style=&quot;font-size: 22px;&quot;&gt;push&lt;/span&gt;" style="text;html=1;align=center;verticalAlign=middle;whiteSpace=wrap;rounded=0;fontFamily=Helvetica;fontSize=12;fontColor=default;" parent="1" vertex="1">
          <mxGeometry x="-110" y="1320" width="60" height="30" as="geometry" />
        </mxCell>
        <mxCell id="atEdzv3-3XpUn_zMzmd4-99" value="&lt;font style=&quot;font-size: 42px;&quot;&gt;&lt;b&gt;PFU&lt;/b&gt;&lt;/font&gt;" style="text;html=1;align=center;verticalAlign=middle;whiteSpace=wrap;rounded=0;" parent="1" vertex="1">
          <mxGeometry x="400" y="1090" width="60" height="30" as="geometry" />
        </mxCell>
        <mxCell id="Bhf9RnwA2u2nLHGRwdH4-5" value="" style="endArrow=classic;html=1;rounded=0;" parent="1" edge="1">
          <mxGeometry width="50" height="50" relative="1" as="geometry">
            <mxPoint x="-230" y="2660" as="sourcePoint" />
            <mxPoint x="-70" y="2660" as="targetPoint" />
          </mxGeometry>
        </mxCell>
        <mxCell id="Bhf9RnwA2u2nLHGRwdH4-6" value="&lt;div&gt;&lt;span style=&quot;font-size: 22px; background-color: transparent; color: light-dark(rgb(0, 0, 0), rgb(255, 255, 255));&quot;&gt;pfu_inst_i&lt;/span&gt;&lt;/div&gt;" style="text;html=1;align=center;verticalAlign=middle;whiteSpace=wrap;rounded=0;fontFamily=Helvetica;fontSize=12;fontColor=default;" parent="1" vertex="1">
          <mxGeometry x="-180" y="2630" width="60" height="30" as="geometry" />
        </mxCell>
        <mxCell id="Bhf9RnwA2u2nLHGRwdH4-7" value="&lt;span style=&quot;font-size: 22px;&quot;&gt;DFF&lt;/span&gt;" style="rounded=0;whiteSpace=wrap;html=1;strokeColor=default;align=center;verticalAlign=middle;fontFamily=Helvetica;fontSize=12;fontColor=default;fillColor=default;" parent="1" vertex="1">
          <mxGeometry x="-70" y="2530" width="140" height="270" as="geometry" />
        </mxCell>
        <mxCell id="Bhf9RnwA2u2nLHGRwdH4-8" value="&lt;font style=&quot;font-size: 22px;&quot;&gt;hand_shake&lt;/font&gt;" style="rounded=0;whiteSpace=wrap;html=1;strokeColor=default;align=center;verticalAlign=middle;fontFamily=Helvetica;fontSize=12;fontColor=default;fillColor=default;" parent="1" vertex="1">
          <mxGeometry x="680" y="1137" width="193" height="90" as="geometry" />
        </mxCell>
        <mxCell id="Bhf9RnwA2u2nLHGRwdH4-9" value="" style="endArrow=classic;html=1;rounded=0;" parent="1" edge="1">
          <mxGeometry width="50" height="50" relative="1" as="geometry">
            <mxPoint x="873" y="1178" as="sourcePoint" />
            <mxPoint x="1241" y="1178" as="targetPoint" />
          </mxGeometry>
        </mxCell>
        <mxCell id="Bhf9RnwA2u2nLHGRwdH4-10" value="&lt;span style=&quot;font-size: 22px;&quot;&gt;pfu_vld_o&lt;/span&gt;" style="text;html=1;align=center;verticalAlign=middle;whiteSpace=wrap;rounded=0;fontFamily=Helvetica;fontSize=12;fontColor=default;" parent="1" vertex="1">
          <mxGeometry x="940" y="1133" width="60" height="30" as="geometry" />
        </mxCell>
        <mxCell id="Bhf9RnwA2u2nLHGRwdH4-11" value="" style="endArrow=classic;html=1;rounded=0;entryX=-0.001;entryY=0.367;entryDx=0;entryDy=0;entryPerimeter=0;" parent="1" edge="1">
          <mxGeometry width="50" height="50" relative="1" as="geometry">
            <mxPoint x="520.19" y="1160" as="sourcePoint" />
            <mxPoint x="679.9970000000001" y="1160.03" as="targetPoint" />
          </mxGeometry>
        </mxCell>
        <mxCell id="Bhf9RnwA2u2nLHGRwdH4-12" value="&lt;span style=&quot;font-size: 22px;&quot;&gt;pfu_stall_i&lt;/span&gt;" style="text;html=1;align=center;verticalAlign=middle;whiteSpace=wrap;rounded=0;fontFamily=Helvetica;fontSize=12;fontColor=default;" parent="1" vertex="1">
          <mxGeometry x="575" y="1128" width="60" height="30" as="geometry" />
        </mxCell>
        <mxCell id="Bhf9RnwA2u2nLHGRwdH4-13" value="" style="endArrow=classic;html=1;rounded=0;entryX=-0.003;entryY=0.699;entryDx=0;entryDy=0;entryPerimeter=0;" parent="1" target="Bhf9RnwA2u2nLHGRwdH4-8" edge="1">
          <mxGeometry width="50" height="50" relative="1" as="geometry">
            <mxPoint x="520" y="1200" as="sourcePoint" />
            <mxPoint x="680" y="1205" as="targetPoint" />
          </mxGeometry>
        </mxCell>
        <mxCell id="Bhf9RnwA2u2nLHGRwdH4-14" value="&lt;span style=&quot;font-size: 22px;&quot;&gt;dpu_ready_i&lt;/span&gt;" style="text;html=1;align=center;verticalAlign=middle;whiteSpace=wrap;rounded=0;fontFamily=Helvetica;fontSize=12;fontColor=default;" parent="1" vertex="1">
          <mxGeometry x="570" y="1169" width="60" height="30" as="geometry" />
        </mxCell>
        <mxCell id="Bhf9RnwA2u2nLHGRwdH4-15" value="" style="endArrow=classic;html=1;rounded=0;entryX=0.687;entryY=-0.018;entryDx=0;entryDy=0;entryPerimeter=0;" parent="1" target="atEdzv3-3XpUn_zMzmd4-80" edge="1">
          <mxGeometry width="50" height="50" relative="1" as="geometry">
            <mxPoint x="873" y="1210" as="sourcePoint" />
            <mxPoint x="960" y="1360" as="targetPoint" />
            <Array as="points">
              <mxPoint x="960" y="1210" />
            </Array>
          </mxGeometry>
        </mxCell>
        <mxCell id="Bhf9RnwA2u2nLHGRwdH4-16" value="&lt;span style=&quot;font-size: 22px;&quot;&gt;update_tri&lt;/span&gt;" style="text;html=1;align=center;verticalAlign=middle;whiteSpace=wrap;rounded=0;fontFamily=Helvetica;fontSize=12;fontColor=default;" parent="1" vertex="1">
          <mxGeometry x="920" y="1180" width="60" height="30" as="geometry" />
        </mxCell>
        <mxCell id="Bhf9RnwA2u2nLHGRwdH4-19" value="" style="endArrow=classic;html=1;rounded=0;" parent="1" edge="1">
          <mxGeometry width="50" height="50" relative="1" as="geometry">
            <mxPoint x="-230" y="2700" as="sourcePoint" />
            <mxPoint x="-70" y="2700" as="targetPoint" />
          </mxGeometry>
        </mxCell>
        <mxCell id="Bhf9RnwA2u2nLHGRwdH4-20" value="&lt;span style=&quot;font-size: 22px;&quot;&gt;pfu_vld_i&lt;/span&gt;" style="text;html=1;align=center;verticalAlign=middle;whiteSpace=wrap;rounded=0;fontFamily=Helvetica;fontSize=12;fontColor=default;" parent="1" vertex="1">
          <mxGeometry x="-180" y="2670" width="60" height="30" as="geometry" />
        </mxCell>
        <mxCell id="Bhf9RnwA2u2nLHGRwdH4-21" value="" style="endArrow=classic;html=1;rounded=0;" parent="1" edge="1">
          <mxGeometry width="50" height="50" relative="1" as="geometry">
            <mxPoint x="-230" y="2740" as="sourcePoint" />
            <mxPoint x="-70" y="2740" as="targetPoint" />
          </mxGeometry>
        </mxCell>
        <mxCell id="Bhf9RnwA2u2nLHGRwdH4-22" value="&lt;span style=&quot;font-size: 22px;&quot;&gt;dpu_ready_o&lt;/span&gt;" style="text;html=1;align=center;verticalAlign=middle;whiteSpace=wrap;rounded=0;fontFamily=Helvetica;fontSize=12;fontColor=default;" parent="1" vertex="1">
          <mxGeometry x="-180" y="2710" width="60" height="30" as="geometry" />
        </mxCell>
        <mxCell id="Bhf9RnwA2u2nLHGRwdH4-23" value="" style="endArrow=classic;html=1;rounded=0;" parent="1" edge="1">
          <mxGeometry width="50" height="50" relative="1" as="geometry">
            <mxPoint x="-230" y="2780" as="sourcePoint" />
            <mxPoint x="-70" y="2780" as="targetPoint" />
          </mxGeometry>
        </mxCell>
        <mxCell id="Bhf9RnwA2u2nLHGRwdH4-24" value="&lt;div&gt;&lt;span style=&quot;font-size: 22px; background-color: transparent; color: light-dark(rgb(0, 0, 0), rgb(255, 255, 255));&quot;&gt;pfu_pc_i&lt;/span&gt;&lt;/div&gt;" style="text;html=1;align=center;verticalAlign=middle;whiteSpace=wrap;rounded=0;fontFamily=Helvetica;fontSize=12;fontColor=default;" parent="1" vertex="1">
          <mxGeometry x="-180" y="2750" width="60" height="30" as="geometry" />
        </mxCell>
        <mxCell id="Bhf9RnwA2u2nLHGRwdH4-25" value="" style="endArrow=classic;html=1;rounded=0;" parent="1" edge="1">
          <mxGeometry width="50" height="50" relative="1" as="geometry">
            <mxPoint x="70" y="2660" as="sourcePoint" />
            <mxPoint x="260" y="2660" as="targetPoint" />
          </mxGeometry>
        </mxCell>
        <mxCell id="Bhf9RnwA2u2nLHGRwdH4-26" value="&lt;div&gt;&lt;span style=&quot;font-size: 22px; background-color: transparent; color: light-dark(rgb(0, 0, 0), rgb(255, 255, 255));&quot;&gt;dpu_inst&lt;/span&gt;&lt;/div&gt;" style="text;html=1;align=center;verticalAlign=middle;whiteSpace=wrap;rounded=0;fontFamily=Helvetica;fontSize=12;fontColor=default;" parent="1" vertex="1">
          <mxGeometry x="120" y="2630" width="60" height="30" as="geometry" />
        </mxCell>
        <mxCell id="Bhf9RnwA2u2nLHGRwdH4-27" value="" style="endArrow=classic;html=1;rounded=0;exitX=1.007;exitY=0.147;exitDx=0;exitDy=0;exitPerimeter=0;entryX=-0.015;entryY=0.086;entryDx=0;entryDy=0;entryPerimeter=0;" parent="1" source="Bhf9RnwA2u2nLHGRwdH4-7" target="qm64EVXF-JTmVJKgpq1t-20" edge="1">
          <mxGeometry width="50" height="50" relative="1" as="geometry">
            <mxPoint x="70" y="2780" as="sourcePoint" />
            <mxPoint x="709" y="2780" as="targetPoint" />
            <Array as="points">
              <mxPoint x="110" y="2570" />
              <mxPoint x="110" y="2380" />
            </Array>
          </mxGeometry>
        </mxCell>
        <mxCell id="Bhf9RnwA2u2nLHGRwdH4-29" value="&lt;span style=&quot;font-size: 22px;&quot;&gt;decoder&lt;/span&gt;" style="rounded=0;whiteSpace=wrap;html=1;strokeColor=default;align=center;verticalAlign=middle;fontFamily=Helvetica;fontSize=12;fontColor=default;fillColor=default;" parent="1" vertex="1">
          <mxGeometry x="263" y="2530" width="140" height="530" as="geometry" />
        </mxCell>
        <mxCell id="Bhf9RnwA2u2nLHGRwdH4-30" value="&lt;span style=&quot;font-size: 22px;&quot;&gt;inst&lt;/span&gt;" style="text;html=1;align=center;verticalAlign=middle;whiteSpace=wrap;rounded=0;fontFamily=Helvetica;fontSize=12;fontColor=default;" parent="1" vertex="1">
          <mxGeometry x="746.5" y="1505" width="60" height="30" as="geometry" />
        </mxCell>
        <mxCell id="qm64EVXF-JTmVJKgpq1t-2" value="&lt;span style=&quot;font-size: 22px;&quot;&gt;imm_gen&lt;/span&gt;" style="rounded=0;whiteSpace=wrap;html=1;strokeColor=default;align=center;verticalAlign=middle;fontFamily=Helvetica;fontSize=12;fontColor=default;fillColor=default;" parent="1" vertex="1">
          <mxGeometry x="450" y="2410" width="140" height="80" as="geometry" />
        </mxCell>
        <mxCell id="qm64EVXF-JTmVJKgpq1t-3" value="" style="endArrow=classic;html=1;rounded=0;entryX=0;entryY=0.75;entryDx=0;entryDy=0;" parent="1" target="qm64EVXF-JTmVJKgpq1t-2" edge="1">
          <mxGeometry width="50" height="50" relative="1" as="geometry">
            <mxPoint x="200" y="2660" as="sourcePoint" />
            <mxPoint x="255" y="2610" as="targetPoint" />
            <Array as="points">
              <mxPoint x="200" y="2470" />
            </Array>
          </mxGeometry>
        </mxCell>
        <mxCell id="qm64EVXF-JTmVJKgpq1t-4" value="" style="endArrow=classic;html=1;rounded=0;entryX=0.5;entryY=1;entryDx=0;entryDy=0;" parent="1" target="qm64EVXF-JTmVJKgpq1t-2" edge="1">
          <mxGeometry width="50" height="50" relative="1" as="geometry">
            <mxPoint x="403" y="2560" as="sourcePoint" />
            <mxPoint x="380" y="2600" as="targetPoint" />
            <Array as="points">
              <mxPoint x="520" y="2560" />
            </Array>
          </mxGeometry>
        </mxCell>
        <mxCell id="qm64EVXF-JTmVJKgpq1t-5" value="&lt;span style=&quot;font-size: 22px;&quot;&gt;inst_type&lt;/span&gt;" style="text;html=1;align=center;verticalAlign=middle;whiteSpace=wrap;rounded=0;fontFamily=Helvetica;fontSize=12;fontColor=default;" parent="1" vertex="1">
          <mxGeometry x="440" y="2530" width="60" height="30" as="geometry" />
        </mxCell>
        <mxCell id="qm64EVXF-JTmVJKgpq1t-8" value="" style="endArrow=classic;html=1;rounded=0;entryX=0;entryY=0.25;entryDx=0;entryDy=0;" parent="1" target="qm64EVXF-JTmVJKgpq1t-2" edge="1">
          <mxGeometry width="50" height="50" relative="1" as="geometry">
            <mxPoint x="70" y="2594.52" as="sourcePoint" />
            <mxPoint x="230" y="2594.52" as="targetPoint" />
            <Array as="points">
              <mxPoint x="150" y="2595" />
              <mxPoint x="150" y="2430" />
            </Array>
          </mxGeometry>
        </mxCell>
        <mxCell id="qm64EVXF-JTmVJKgpq1t-9" value="&lt;div&gt;&lt;span style=&quot;font-size: 22px; background-color: transparent; color: light-dark(rgb(0, 0, 0), rgb(255, 255, 255));&quot;&gt;imm_10_5&lt;/span&gt;&lt;/div&gt;" style="text;html=1;align=center;verticalAlign=middle;whiteSpace=wrap;rounded=0;fontFamily=Helvetica;fontSize=12;fontColor=default;" parent="1" vertex="1">
          <mxGeometry x="343" y="2400" width="60" height="30" as="geometry" />
        </mxCell>
        <mxCell id="qm64EVXF-JTmVJKgpq1t-10" value="" style="endArrow=classic;html=1;rounded=0;" parent="1" edge="1">
          <mxGeometry width="50" height="50" relative="1" as="geometry">
            <mxPoint x="590" y="2449.52" as="sourcePoint" />
            <mxPoint x="710" y="2450" as="targetPoint" />
          </mxGeometry>
        </mxCell>
        <mxCell id="qm64EVXF-JTmVJKgpq1t-11" value="&lt;div&gt;&lt;span style=&quot;font-size: 22px; background-color: transparent; color: light-dark(rgb(0, 0, 0), rgb(255, 255, 255));&quot;&gt;imm&lt;/span&gt;&lt;/div&gt;" style="text;html=1;align=center;verticalAlign=middle;whiteSpace=wrap;rounded=0;fontFamily=Helvetica;fontSize=12;fontColor=default;" parent="1" vertex="1">
          <mxGeometry x="625" y="2420" width="60" height="30" as="geometry" />
        </mxCell>
        <mxCell id="qm64EVXF-JTmVJKgpq1t-12" value="" style="endArrow=classic;html=1;rounded=0;entryX=0;entryY=0.594;entryDx=0;entryDy=0;entryPerimeter=0;" parent="1" target="qm64EVXF-JTmVJKgpq1t-20" edge="1">
          <mxGeometry width="50" height="50" relative="1" as="geometry">
            <mxPoint x="404" y="2620" as="sourcePoint" />
            <mxPoint x="700" y="2610" as="targetPoint" />
          </mxGeometry>
        </mxCell>
        <mxCell id="qm64EVXF-JTmVJKgpq1t-13" value="&lt;span style=&quot;font-size: 22px;&quot;&gt;rs1&lt;/span&gt;" style="text;html=1;align=center;verticalAlign=middle;whiteSpace=wrap;rounded=0;fontFamily=Helvetica;fontSize=12;fontColor=default;" parent="1" vertex="1">
          <mxGeometry x="460" y="2580" width="60" height="30" as="geometry" />
        </mxCell>
        <mxCell id="qm64EVXF-JTmVJKgpq1t-16" value="" style="endArrow=classic;html=1;rounded=0;entryX=0;entryY=0.699;entryDx=0;entryDy=0;entryPerimeter=0;" parent="1" target="qm64EVXF-JTmVJKgpq1t-20" edge="1">
          <mxGeometry width="50" height="50" relative="1" as="geometry">
            <mxPoint x="403" y="2669.05" as="sourcePoint" />
            <mxPoint x="563" y="2669.05" as="targetPoint" />
          </mxGeometry>
        </mxCell>
        <mxCell id="qm64EVXF-JTmVJKgpq1t-17" value="&lt;span style=&quot;font-size: 22px;&quot;&gt;rs2&lt;/span&gt;" style="text;html=1;align=center;verticalAlign=middle;whiteSpace=wrap;rounded=0;fontFamily=Helvetica;fontSize=12;fontColor=default;" parent="1" vertex="1">
          <mxGeometry x="459" y="2639.05" width="60" height="30" as="geometry" />
        </mxCell>
        <mxCell id="qm64EVXF-JTmVJKgpq1t-20" value="&lt;span style=&quot;font-size: 22px;&quot;&gt;op_mux&lt;/span&gt;" style="rounded=0;whiteSpace=wrap;html=1;strokeColor=default;align=center;verticalAlign=middle;fontFamily=Helvetica;fontSize=12;fontColor=default;fillColor=default;" parent="1" vertex="1">
          <mxGeometry x="710" y="2340" width="140" height="470" as="geometry" />
        </mxCell>
        <mxCell id="qm64EVXF-JTmVJKgpq1t-21" value="&lt;div&gt;&lt;span style=&quot;font-size: 22px; background-color: transparent; color: light-dark(rgb(0, 0, 0), rgb(255, 255, 255));&quot;&gt;dpu_pc&lt;/span&gt;&lt;/div&gt;" style="text;html=1;align=center;verticalAlign=middle;whiteSpace=wrap;rounded=0;fontFamily=Helvetica;fontSize=12;fontColor=default;" parent="1" vertex="1">
          <mxGeometry x="625" y="2350" width="60" height="30" as="geometry" />
        </mxCell>
        <mxCell id="qm64EVXF-JTmVJKgpq1t-23" value="&lt;span style=&quot;font-size: 22px;&quot;&gt;csr_reg&lt;/span&gt;" style="text;html=1;align=center;verticalAlign=middle;whiteSpace=wrap;rounded=0;fontFamily=Helvetica;fontSize=12;fontColor=default;" parent="1" vertex="1">
          <mxGeometry x="450" y="2689.05" width="60" height="30" as="geometry" />
        </mxCell>
        <mxCell id="qm64EVXF-JTmVJKgpq1t-25" value="" style="endArrow=classic;html=1;rounded=0;strokeColor=default;align=center;verticalAlign=middle;fontFamily=Helvetica;fontSize=11;fontColor=default;labelBackgroundColor=default;entryX=-0.004;entryY=0.179;entryDx=0;entryDy=0;entryPerimeter=0;" parent="1" edge="1">
          <mxGeometry width="50" height="50" relative="1" as="geometry">
            <mxPoint x="850" y="2459.52" as="sourcePoint" />
            <mxPoint x="1069.6399999999999" y="2461.29" as="targetPoint" />
          </mxGeometry>
        </mxCell>
        <mxCell id="qm64EVXF-JTmVJKgpq1t-26" value="" style="endArrow=classic;html=1;rounded=0;entryX=-0.008;entryY=0.181;entryDx=0;entryDy=0;entryPerimeter=0;" parent="1" edge="1">
          <mxGeometry width="50" height="50" relative="1" as="geometry">
            <mxPoint x="850" y="2620" as="sourcePoint" />
            <mxPoint x="1068" y="2620.48" as="targetPoint" />
          </mxGeometry>
        </mxCell>
        <mxCell id="qm64EVXF-JTmVJKgpq1t-27" value="&lt;div&gt;&lt;span style=&quot;font-size: 22px; background-color: transparent; color: light-dark(rgb(0, 0, 0), rgb(255, 255, 255));&quot;&gt;op_0&lt;/span&gt;&lt;/div&gt;" style="text;html=1;align=center;verticalAlign=middle;whiteSpace=wrap;rounded=0;fontFamily=Helvetica;fontSize=12;fontColor=default;" parent="1" vertex="1">
          <mxGeometry x="930" y="2430" width="60" height="30" as="geometry" />
        </mxCell>
        <mxCell id="qm64EVXF-JTmVJKgpq1t-28" value="&lt;div&gt;&lt;span style=&quot;font-size: 22px; background-color: transparent; color: light-dark(rgb(0, 0, 0), rgb(255, 255, 255));&quot;&gt;op_1&lt;/span&gt;&lt;/div&gt;" style="text;html=1;align=center;verticalAlign=middle;whiteSpace=wrap;rounded=0;fontFamily=Helvetica;fontSize=12;fontColor=default;" parent="1" vertex="1">
          <mxGeometry x="930" y="2590" width="60" height="30" as="geometry" />
        </mxCell>
        <mxCell id="qm64EVXF-JTmVJKgpq1t-36" value="" style="endArrow=classic;html=1;rounded=0;strokeColor=default;align=center;verticalAlign=middle;fontFamily=Helvetica;fontSize=11;fontColor=default;labelBackgroundColor=default;entryX=-0.021;entryY=0.085;entryDx=0;entryDy=0;entryPerimeter=0;" parent="1" target="UycFjAIk4bAWk2HLjrid-1" edge="1">
          <mxGeometry width="50" height="50" relative="1" as="geometry">
            <mxPoint x="1400" y="2438" as="sourcePoint" />
            <mxPoint x="1617" y="2438.48" as="targetPoint" />
          </mxGeometry>
        </mxCell>
        <mxCell id="qm64EVXF-JTmVJKgpq1t-37" value="&lt;div&gt;&lt;span style=&quot;font-size: 22px; background-color: transparent; color: light-dark(rgb(0, 0, 0), rgb(255, 255, 255));&quot;&gt;alu_result&lt;/span&gt;&lt;/div&gt;" style="text;html=1;align=center;verticalAlign=middle;whiteSpace=wrap;rounded=0;fontFamily=Helvetica;fontSize=12;fontColor=default;" parent="1" vertex="1">
          <mxGeometry x="1510" y="2644.52" width="60" height="30" as="geometry" />
        </mxCell>
        <mxCell id="qm64EVXF-JTmVJKgpq1t-32" value="&lt;font style=&quot;font-size: 22px;&quot;&gt;lsu&lt;/font&gt;" style="rounded=0;whiteSpace=wrap;html=1;strokeColor=default;align=center;verticalAlign=middle;fontFamily=Helvetica;fontSize=12;fontColor=default;fillColor=default;" parent="1" vertex="1">
          <mxGeometry x="1111" y="2940" width="160" height="160" as="geometry" />
        </mxCell>
        <mxCell id="qm64EVXF-JTmVJKgpq1t-45" value="" style="endArrow=classic;html=1;rounded=0;entryX=0.277;entryY=-0.007;entryDx=0;entryDy=0;entryPerimeter=0;" parent="1" edge="1">
          <mxGeometry width="50" height="50" relative="1" as="geometry">
            <mxPoint x="880" y="1661" as="sourcePoint" />
            <mxPoint x="880" y="1590" as="targetPoint" />
          </mxGeometry>
        </mxCell>
        <mxCell id="qm64EVXF-JTmVJKgpq1t-46" value="&lt;span style=&quot;font-size: 22px;&quot;&gt;flush&lt;/span&gt;" style="text;html=1;align=center;verticalAlign=middle;whiteSpace=wrap;rounded=0;fontFamily=Helvetica;fontSize=12;fontColor=default;" parent="1" vertex="1">
          <mxGeometry x="910" y="1610" width="60" height="30" as="geometry" />
        </mxCell>
        <mxCell id="qm64EVXF-JTmVJKgpq1t-47" value="" style="endArrow=classic;html=1;rounded=0;fontFamily=Helvetica;fontSize=12;fontColor=default;entryX=-0.005;entryY=0.807;entryDx=0;entryDy=0;entryPerimeter=0;" parent="1" target="qm64EVXF-JTmVJKgpq1t-20" edge="1">
          <mxGeometry width="50" height="50" relative="1" as="geometry">
            <mxPoint x="410" y="2719" as="sourcePoint" />
            <mxPoint x="760" y="2530" as="targetPoint" />
          </mxGeometry>
        </mxCell>
        <mxCell id="qm64EVXF-JTmVJKgpq1t-48" value="" style="endArrow=classic;html=1;rounded=0;strokeColor=default;align=center;verticalAlign=middle;fontFamily=Helvetica;fontSize=11;fontColor=default;labelBackgroundColor=default;exitX=1.006;exitY=0.849;exitDx=0;exitDy=0;exitPerimeter=0;" parent="1" source="Bhf9RnwA2u2nLHGRwdH4-29" edge="1">
          <mxGeometry width="50" height="50" relative="1" as="geometry">
            <mxPoint x="403" y="2974.7000000000003" as="sourcePoint" />
            <mxPoint x="1110" y="2980" as="targetPoint" />
          </mxGeometry>
        </mxCell>
        <mxCell id="qm64EVXF-JTmVJKgpq1t-49" value="&lt;span style=&quot;font-size: 22px;&quot;&gt;load_interface&lt;/span&gt;" style="text;html=1;align=center;verticalAlign=middle;whiteSpace=wrap;rounded=0;fontFamily=Helvetica;fontSize=11;fontColor=default;labelBackgroundColor=none;fillColor=none;" parent="1" vertex="1">
          <mxGeometry x="990" y="2940.0000000000005" width="60" height="30" as="geometry" />
        </mxCell>
        <mxCell id="qm64EVXF-JTmVJKgpq1t-50" value="" style="endArrow=classic;html=1;rounded=0;strokeColor=default;align=center;verticalAlign=middle;fontFamily=Helvetica;fontSize=11;fontColor=default;labelBackgroundColor=default;" parent="1" edge="1">
          <mxGeometry width="50" height="50" relative="1" as="geometry">
            <mxPoint x="403" y="3020" as="sourcePoint" />
            <mxPoint x="1110.3508771929824" y="3020" as="targetPoint" />
          </mxGeometry>
        </mxCell>
        <mxCell id="qm64EVXF-JTmVJKgpq1t-51" value="&lt;span style=&quot;font-size: 22px;&quot;&gt;store&lt;/span&gt;&lt;span style=&quot;font-size: 22px; color: light-dark(rgb(0, 0, 0), rgb(255, 255, 255));&quot;&gt;_interface&lt;/span&gt;" style="text;html=1;align=center;verticalAlign=middle;whiteSpace=wrap;rounded=0;fontFamily=Helvetica;fontSize=11;fontColor=default;labelBackgroundColor=none;" parent="1" vertex="1">
          <mxGeometry x="990" y="2985" width="60" height="30" as="geometry" />
        </mxCell>
        <mxCell id="qm64EVXF-JTmVJKgpq1t-54" value="" style="endArrow=classic;html=1;rounded=0;fontFamily=Helvetica;fontSize=12;fontColor=default;exitX=0.25;exitY=1;exitDx=0;exitDy=0;" parent="1" edge="1">
          <mxGeometry width="50" height="50" relative="1" as="geometry">
            <mxPoint x="1190" y="3100" as="sourcePoint" />
            <mxPoint x="1190" y="3269" as="targetPoint" />
          </mxGeometry>
        </mxCell>
        <mxCell id="qm64EVXF-JTmVJKgpq1t-55" value="&lt;span style=&quot;font-size: 22px;&quot;&gt;ahb_d&lt;/span&gt;" style="text;html=1;align=center;verticalAlign=middle;whiteSpace=wrap;rounded=0;fontFamily=Helvetica;fontSize=11;fontColor=default;labelBackgroundColor=none;" parent="1" vertex="1">
          <mxGeometry x="1197.75" y="3169" width="60" height="30" as="geometry" />
        </mxCell>
        <mxCell id="qm64EVXF-JTmVJKgpq1t-56" value="" style="endArrow=classic;html=1;rounded=0;fontFamily=Helvetica;fontSize=12;fontColor=default;exitX=1.001;exitY=0.187;exitDx=0;exitDy=0;entryX=0.886;entryY=1.002;entryDx=0;entryDy=0;entryPerimeter=0;exitPerimeter=0;" parent="1" source="qm64EVXF-JTmVJKgpq1t-32" target="K_XwMHUMVquwX1VhCljE-37" edge="1">
          <mxGeometry width="50" height="50" relative="1" as="geometry">
            <mxPoint x="1179.29" y="3020" as="sourcePoint" />
            <mxPoint x="1620" y="2971" as="targetPoint" />
          </mxGeometry>
        </mxCell>
        <mxCell id="qm64EVXF-JTmVJKgpq1t-58" value="&lt;span style=&quot;font-size: 22px;&quot;&gt;ahb_rdata&lt;/span&gt;" style="text;html=1;align=center;verticalAlign=middle;whiteSpace=wrap;rounded=0;fontFamily=Helvetica;fontSize=11;fontColor=default;labelBackgroundColor=none;" parent="1" vertex="1">
          <mxGeometry x="1520" y="2940" width="60" height="30" as="geometry" />
        </mxCell>
        <mxCell id="UycFjAIk4bAWk2HLjrid-1" value="&lt;span style=&quot;font-size: 22px;&quot;&gt;DFF&lt;/span&gt;" style="rounded=0;whiteSpace=wrap;html=1;strokeColor=default;align=center;verticalAlign=middle;fontFamily=Helvetica;fontSize=12;fontColor=default;fillColor=default;" parent="1" vertex="1">
          <mxGeometry x="1840" y="2390" width="140" height="590" as="geometry" />
        </mxCell>
        <mxCell id="UycFjAIk4bAWk2HLjrid-2" value="" style="endArrow=classic;html=1;rounded=0;exitX=1;exitY=0.5;exitDx=0;exitDy=0;entryX=0;entryY=0.5;entryDx=0;entryDy=0;" parent="1" edge="1">
          <mxGeometry width="50" height="50" relative="1" as="geometry">
            <mxPoint x="310" y="1570" as="sourcePoint" />
            <mxPoint x="440" y="1570" as="targetPoint" />
          </mxGeometry>
        </mxCell>
        <mxCell id="UycFjAIk4bAWk2HLjrid-3" value="&lt;span style=&quot;font-size: 22px;&quot;&gt;pc&lt;/span&gt;" style="text;html=1;align=center;verticalAlign=middle;whiteSpace=wrap;rounded=0;fontFamily=Helvetica;fontSize=12;fontColor=default;" parent="1" vertex="1">
          <mxGeometry x="343" y="1539" width="60" height="30" as="geometry" />
        </mxCell>
        <mxCell id="UycFjAIk4bAWk2HLjrid-4" value="" style="endArrow=classic;html=1;rounded=0;exitX=1;exitY=0.5;exitDx=0;exitDy=0;" parent="1" edge="1">
          <mxGeometry width="50" height="50" relative="1" as="geometry">
            <mxPoint x="1021" y="1519.38" as="sourcePoint" />
            <mxPoint x="1241" y="1519.38" as="targetPoint" />
          </mxGeometry>
        </mxCell>
        <mxCell id="UycFjAIk4bAWk2HLjrid-5" value="&lt;span style=&quot;font-size: 22px;&quot;&gt;pc_o&lt;/span&gt;" style="text;html=1;align=center;verticalAlign=middle;whiteSpace=wrap;rounded=0;fontFamily=Helvetica;fontSize=12;fontColor=default;" parent="1" vertex="1">
          <mxGeometry x="1161" y="1488" width="60" height="30" as="geometry" />
        </mxCell>
        <mxCell id="w3Y4UFnjGA6J7m3BMMHb-1" value="&lt;font style=&quot;font-size: 22px;&quot;&gt;adder_core&lt;/font&gt;" style="rounded=0;whiteSpace=wrap;html=1;strokeColor=default;align=center;verticalAlign=middle;fontFamily=Helvetica;fontSize=12;fontColor=default;fillColor=default;" parent="1" vertex="1">
          <mxGeometry x="1894" y="3580" width="160" height="270" as="geometry" />
        </mxCell>
        <mxCell id="w3Y4UFnjGA6J7m3BMMHb-4" value="" style="endArrow=classic;html=1;rounded=0;exitX=1;exitY=0.25;exitDx=0;exitDy=0;" parent="1" edge="1">
          <mxGeometry width="50" height="50" relative="1" as="geometry">
            <mxPoint x="2054" y="3660" as="sourcePoint" />
            <mxPoint x="2174" y="3660" as="targetPoint" />
          </mxGeometry>
        </mxCell>
        <mxCell id="w3Y4UFnjGA6J7m3BMMHb-6" value="&lt;font style=&quot;font-size: 22px;&quot;&gt;eq&lt;/font&gt;" style="text;html=1;align=center;verticalAlign=middle;whiteSpace=wrap;rounded=0;" parent="1" vertex="1">
          <mxGeometry x="2084" y="3630" width="60" height="30" as="geometry" />
        </mxCell>
        <mxCell id="w3Y4UFnjGA6J7m3BMMHb-7" value="" style="endArrow=classic;html=1;rounded=0;exitX=1;exitY=0.25;exitDx=0;exitDy=0;" parent="1" edge="1">
          <mxGeometry width="50" height="50" relative="1" as="geometry">
            <mxPoint x="2054" y="3700" as="sourcePoint" />
            <mxPoint x="2174" y="3700" as="targetPoint" />
          </mxGeometry>
        </mxCell>
        <mxCell id="w3Y4UFnjGA6J7m3BMMHb-8" value="&lt;font style=&quot;font-size: 22px;&quot;&gt;ne&lt;/font&gt;" style="text;html=1;align=center;verticalAlign=middle;whiteSpace=wrap;rounded=0;" parent="1" vertex="1">
          <mxGeometry x="2084" y="3670" width="60" height="30" as="geometry" />
        </mxCell>
        <mxCell id="w3Y4UFnjGA6J7m3BMMHb-12" value="" style="endArrow=classic;html=1;rounded=0;exitX=1;exitY=0.25;exitDx=0;exitDy=0;" parent="1" edge="1">
          <mxGeometry width="50" height="50" relative="1" as="geometry">
            <mxPoint x="2054" y="3730" as="sourcePoint" />
            <mxPoint x="2174" y="3730" as="targetPoint" />
          </mxGeometry>
        </mxCell>
        <mxCell id="w3Y4UFnjGA6J7m3BMMHb-13" value="&lt;font style=&quot;font-size: 22px;&quot;&gt;ltu&lt;/font&gt;" style="text;html=1;align=center;verticalAlign=middle;whiteSpace=wrap;rounded=0;" parent="1" vertex="1">
          <mxGeometry x="2084" y="3700" width="60" height="30" as="geometry" />
        </mxCell>
        <mxCell id="w3Y4UFnjGA6J7m3BMMHb-14" value="" style="endArrow=classic;html=1;rounded=0;exitX=1;exitY=0.25;exitDx=0;exitDy=0;" parent="1" edge="1">
          <mxGeometry width="50" height="50" relative="1" as="geometry">
            <mxPoint x="2054" y="3770" as="sourcePoint" />
            <mxPoint x="2174" y="3770" as="targetPoint" />
          </mxGeometry>
        </mxCell>
        <mxCell id="w3Y4UFnjGA6J7m3BMMHb-15" value="&lt;font style=&quot;font-size: 22px;&quot;&gt;geu&lt;/font&gt;" style="text;html=1;align=center;verticalAlign=middle;whiteSpace=wrap;rounded=0;" parent="1" vertex="1">
          <mxGeometry x="2084" y="3740" width="60" height="30" as="geometry" />
        </mxCell>
        <mxCell id="w3Y4UFnjGA6J7m3BMMHb-16" value="" style="endArrow=classic;html=1;rounded=0;exitX=1;exitY=0.25;exitDx=0;exitDy=0;" parent="1" edge="1">
          <mxGeometry width="50" height="50" relative="1" as="geometry">
            <mxPoint x="2054" y="3800" as="sourcePoint" />
            <mxPoint x="2174" y="3800" as="targetPoint" />
          </mxGeometry>
        </mxCell>
        <mxCell id="w3Y4UFnjGA6J7m3BMMHb-17" value="&lt;font style=&quot;font-size: 22px;&quot;&gt;lts&lt;/font&gt;" style="text;html=1;align=center;verticalAlign=middle;whiteSpace=wrap;rounded=0;" parent="1" vertex="1">
          <mxGeometry x="2084" y="3770" width="60" height="30" as="geometry" />
        </mxCell>
        <mxCell id="w3Y4UFnjGA6J7m3BMMHb-18" value="" style="endArrow=classic;html=1;rounded=0;exitX=1;exitY=0.25;exitDx=0;exitDy=0;" parent="1" edge="1">
          <mxGeometry width="50" height="50" relative="1" as="geometry">
            <mxPoint x="2054" y="3840" as="sourcePoint" />
            <mxPoint x="2174" y="3840" as="targetPoint" />
          </mxGeometry>
        </mxCell>
        <mxCell id="w3Y4UFnjGA6J7m3BMMHb-19" value="&lt;font style=&quot;font-size: 22px;&quot;&gt;ges&lt;/font&gt;" style="text;html=1;align=center;verticalAlign=middle;whiteSpace=wrap;rounded=0;" parent="1" vertex="1">
          <mxGeometry x="2084" y="3810" width="60" height="30" as="geometry" />
        </mxCell>
        <mxCell id="w3Y4UFnjGA6J7m3BMMHb-20" value="" style="shape=trapezoid;perimeter=trapezoidPerimeter;whiteSpace=wrap;html=1;fixedSize=1;rotation=90;" parent="1" vertex="1">
          <mxGeometry x="2074" y="3697" width="260" height="60" as="geometry" />
        </mxCell>
        <mxCell id="w3Y4UFnjGA6J7m3BMMHb-21" value="&lt;font style=&quot;font-size: 22px;&quot;&gt;mux&lt;/font&gt;" style="text;html=1;align=center;verticalAlign=middle;whiteSpace=wrap;rounded=0;" parent="1" vertex="1">
          <mxGeometry x="2174" y="3712" width="60" height="30" as="geometry" />
        </mxCell>
        <mxCell id="w3Y4UFnjGA6J7m3BMMHb-22" value="" style="endArrow=classic;html=1;rounded=0;entryX=0;entryY=0.5;entryDx=0;entryDy=0;" parent="1" target="w3Y4UFnjGA6J7m3BMMHb-20" edge="1">
          <mxGeometry width="50" height="50" relative="1" as="geometry">
            <mxPoint x="2204" y="3540" as="sourcePoint" />
            <mxPoint x="2239" y="3490" as="targetPoint" />
          </mxGeometry>
        </mxCell>
        <mxCell id="w3Y4UFnjGA6J7m3BMMHb-23" value="&lt;font style=&quot;font-size: 22px;&quot;&gt;adder_result_sel_i&lt;/font&gt;" style="text;html=1;align=center;verticalAlign=middle;whiteSpace=wrap;rounded=0;" parent="1" vertex="1">
          <mxGeometry x="2274" y="3550" width="60" height="30" as="geometry" />
        </mxCell>
        <mxCell id="w3Y4UFnjGA6J7m3BMMHb-24" value="" style="endArrow=classic;html=1;rounded=0;" parent="1" edge="1">
          <mxGeometry width="50" height="50" relative="1" as="geometry">
            <mxPoint x="1774" y="3636" as="sourcePoint" />
            <mxPoint x="1894" y="3636" as="targetPoint" />
          </mxGeometry>
        </mxCell>
        <mxCell id="w3Y4UFnjGA6J7m3BMMHb-25" value="&lt;span style=&quot;font-size: 22px;&quot;&gt;op_1_i&lt;/span&gt;" style="text;html=1;align=center;verticalAlign=middle;whiteSpace=wrap;rounded=0;" parent="1" vertex="1">
          <mxGeometry x="1804" y="3600" width="60" height="30" as="geometry" />
        </mxCell>
        <mxCell id="w3Y4UFnjGA6J7m3BMMHb-26" value="" style="endArrow=classic;html=1;rounded=0;" parent="1" edge="1">
          <mxGeometry width="50" height="50" relative="1" as="geometry">
            <mxPoint x="1774" y="3702.47" as="sourcePoint" />
            <mxPoint x="1894" y="3702.47" as="targetPoint" />
          </mxGeometry>
        </mxCell>
        <mxCell id="w3Y4UFnjGA6J7m3BMMHb-27" value="&lt;span style=&quot;font-size: 22px;&quot;&gt;op_2_i&lt;/span&gt;" style="text;html=1;align=center;verticalAlign=middle;whiteSpace=wrap;rounded=0;" parent="1" vertex="1">
          <mxGeometry x="1804" y="3666.47" width="60" height="30" as="geometry" />
        </mxCell>
        <mxCell id="w3Y4UFnjGA6J7m3BMMHb-28" value="" style="endArrow=classic;html=1;rounded=0;" parent="1" edge="1">
          <mxGeometry width="50" height="50" relative="1" as="geometry">
            <mxPoint x="1774" y="3768.95" as="sourcePoint" />
            <mxPoint x="1894" y="3768.95" as="targetPoint" />
          </mxGeometry>
        </mxCell>
        <mxCell id="w3Y4UFnjGA6J7m3BMMHb-29" value="&lt;span style=&quot;font-size: 22px;&quot;&gt;sub_i&lt;/span&gt;" style="text;html=1;align=center;verticalAlign=middle;whiteSpace=wrap;rounded=0;" parent="1" vertex="1">
          <mxGeometry x="1804" y="3732.95" width="60" height="30" as="geometry" />
        </mxCell>
        <mxCell id="w3Y4UFnjGA6J7m3BMMHb-30" value="" style="endArrow=classic;html=1;rounded=0;exitX=1;exitY=0.25;exitDx=0;exitDy=0;" parent="1" edge="1">
          <mxGeometry width="50" height="50" relative="1" as="geometry">
            <mxPoint x="2234" y="3720" as="sourcePoint" />
            <mxPoint x="2394" y="3720" as="targetPoint" />
          </mxGeometry>
        </mxCell>
        <mxCell id="w3Y4UFnjGA6J7m3BMMHb-31" value="&lt;span style=&quot;font-size: 22px;&quot;&gt;adder_result_o&lt;/span&gt;" style="text;html=1;align=center;verticalAlign=middle;whiteSpace=wrap;rounded=0;" parent="1" vertex="1">
          <mxGeometry x="2284" y="3682" width="60" height="30" as="geometry" />
        </mxCell>
        <mxCell id="w3Y4UFnjGA6J7m3BMMHb-33" value="&lt;font style=&quot;font-size: 22px;&quot;&gt;&lt;b&gt;LOGIC_ADDER&lt;/b&gt;&lt;/font&gt;" style="text;html=1;align=center;verticalAlign=middle;whiteSpace=wrap;rounded=0;" parent="1" vertex="1">
          <mxGeometry x="2034" y="3510" width="60" height="30" as="geometry" />
        </mxCell>
        <mxCell id="w3Y4UFnjGA6J7m3BMMHb-36" value="" style="endArrow=classic;html=1;rounded=0;" parent="1" edge="1">
          <mxGeometry width="50" height="50" relative="1" as="geometry">
            <mxPoint x="2644" y="3624.23" as="sourcePoint" />
            <mxPoint x="2764" y="3624.23" as="targetPoint" />
          </mxGeometry>
        </mxCell>
        <mxCell id="w3Y4UFnjGA6J7m3BMMHb-37" value="&lt;font style=&quot;font-size: 22px;&quot;&gt;and&lt;/font&gt;" style="text;html=1;align=center;verticalAlign=middle;whiteSpace=wrap;rounded=0;" parent="1" vertex="1">
          <mxGeometry x="2674" y="3588.23" width="60" height="30" as="geometry" />
        </mxCell>
        <mxCell id="w3Y4UFnjGA6J7m3BMMHb-38" value="" style="endArrow=classic;html=1;rounded=0;exitX=1;exitY=0.25;exitDx=0;exitDy=0;" parent="1" edge="1">
          <mxGeometry width="50" height="50" relative="1" as="geometry">
            <mxPoint x="2644" y="3664.23" as="sourcePoint" />
            <mxPoint x="2764" y="3664.23" as="targetPoint" />
          </mxGeometry>
        </mxCell>
        <mxCell id="w3Y4UFnjGA6J7m3BMMHb-39" value="&lt;font style=&quot;font-size: 22px;&quot;&gt;or&lt;/font&gt;" style="text;html=1;align=center;verticalAlign=middle;whiteSpace=wrap;rounded=0;" parent="1" vertex="1">
          <mxGeometry x="2674" y="3634.23" width="60" height="30" as="geometry" />
        </mxCell>
        <mxCell id="w3Y4UFnjGA6J7m3BMMHb-40" value="" style="endArrow=classic;html=1;rounded=0;exitX=1;exitY=0.25;exitDx=0;exitDy=0;" parent="1" edge="1">
          <mxGeometry width="50" height="50" relative="1" as="geometry">
            <mxPoint x="2644" y="3704.23" as="sourcePoint" />
            <mxPoint x="2764" y="3704.23" as="targetPoint" />
          </mxGeometry>
        </mxCell>
        <mxCell id="w3Y4UFnjGA6J7m3BMMHb-41" value="&lt;font style=&quot;font-size: 22px;&quot;&gt;shift_left&lt;/font&gt;" style="text;html=1;align=center;verticalAlign=middle;whiteSpace=wrap;rounded=0;" parent="1" vertex="1">
          <mxGeometry x="2674" y="3674.23" width="60" height="30" as="geometry" />
        </mxCell>
        <mxCell id="w3Y4UFnjGA6J7m3BMMHb-42" value="" style="endArrow=classic;html=1;rounded=0;exitX=1;exitY=0.25;exitDx=0;exitDy=0;" parent="1" edge="1">
          <mxGeometry width="50" height="50" relative="1" as="geometry">
            <mxPoint x="2644" y="3734.23" as="sourcePoint" />
            <mxPoint x="2764" y="3734.23" as="targetPoint" />
          </mxGeometry>
        </mxCell>
        <mxCell id="w3Y4UFnjGA6J7m3BMMHb-43" value="&lt;font style=&quot;font-size: 22px;&quot;&gt;shift_right&lt;/font&gt;" style="text;html=1;align=center;verticalAlign=middle;whiteSpace=wrap;rounded=0;" parent="1" vertex="1">
          <mxGeometry x="2674" y="3704.23" width="60" height="30" as="geometry" />
        </mxCell>
        <mxCell id="w3Y4UFnjGA6J7m3BMMHb-44" value="" style="endArrow=classic;html=1;rounded=0;exitX=1;exitY=0.25;exitDx=0;exitDy=0;" parent="1" edge="1">
          <mxGeometry width="50" height="50" relative="1" as="geometry">
            <mxPoint x="2644" y="3774.23" as="sourcePoint" />
            <mxPoint x="2764" y="3774.23" as="targetPoint" />
          </mxGeometry>
        </mxCell>
        <mxCell id="w3Y4UFnjGA6J7m3BMMHb-45" value="&lt;font style=&quot;font-size: 22px;&quot;&gt;alt_shift_right&lt;/font&gt;" style="text;html=1;align=center;verticalAlign=middle;whiteSpace=wrap;rounded=0;" parent="1" vertex="1">
          <mxGeometry x="2654" y="3744.23" width="60" height="30" as="geometry" />
        </mxCell>
        <mxCell id="w3Y4UFnjGA6J7m3BMMHb-46" value="" style="endArrow=classic;html=1;rounded=0;exitX=1;exitY=0.25;exitDx=0;exitDy=0;" parent="1" edge="1">
          <mxGeometry width="50" height="50" relative="1" as="geometry">
            <mxPoint x="2644" y="3804.23" as="sourcePoint" />
            <mxPoint x="2764" y="3804.23" as="targetPoint" />
          </mxGeometry>
        </mxCell>
        <mxCell id="w3Y4UFnjGA6J7m3BMMHb-47" value="&lt;font style=&quot;font-size: 22px;&quot;&gt;xor&lt;/font&gt;" style="text;html=1;align=center;verticalAlign=middle;whiteSpace=wrap;rounded=0;" parent="1" vertex="1">
          <mxGeometry x="2674" y="3774.23" width="60" height="30" as="geometry" />
        </mxCell>
        <mxCell id="w3Y4UFnjGA6J7m3BMMHb-48" value="" style="endArrow=classic;html=1;rounded=0;exitX=1;exitY=0.25;exitDx=0;exitDy=0;" parent="1" edge="1">
          <mxGeometry width="50" height="50" relative="1" as="geometry">
            <mxPoint x="2644" y="3844.23" as="sourcePoint" />
            <mxPoint x="2764" y="3844.23" as="targetPoint" />
          </mxGeometry>
        </mxCell>
        <mxCell id="w3Y4UFnjGA6J7m3BMMHb-49" value="&lt;font style=&quot;font-size: 22px;&quot;&gt;csr_set&lt;/font&gt;" style="text;html=1;align=center;verticalAlign=middle;whiteSpace=wrap;rounded=0;" parent="1" vertex="1">
          <mxGeometry x="2674" y="3814.23" width="60" height="30" as="geometry" />
        </mxCell>
        <mxCell id="w3Y4UFnjGA6J7m3BMMHb-50" value="" style="shape=trapezoid;perimeter=trapezoidPerimeter;whiteSpace=wrap;html=1;fixedSize=1;rotation=90;" parent="1" vertex="1">
          <mxGeometry x="2644" y="3721.23" width="300" height="60" as="geometry" />
        </mxCell>
        <mxCell id="w3Y4UFnjGA6J7m3BMMHb-51" value="&lt;font style=&quot;font-size: 22px;&quot;&gt;mux&lt;/font&gt;" style="text;html=1;align=center;verticalAlign=middle;whiteSpace=wrap;rounded=0;" parent="1" vertex="1">
          <mxGeometry x="2764" y="3716.23" width="60" height="30" as="geometry" />
        </mxCell>
        <mxCell id="w3Y4UFnjGA6J7m3BMMHb-52" value="" style="endArrow=classic;html=1;rounded=0;entryX=0;entryY=0.5;entryDx=0;entryDy=0;" parent="1" target="w3Y4UFnjGA6J7m3BMMHb-50" edge="1">
          <mxGeometry width="50" height="50" relative="1" as="geometry">
            <mxPoint x="2794" y="3544.23" as="sourcePoint" />
            <mxPoint x="2829" y="3494.23" as="targetPoint" />
          </mxGeometry>
        </mxCell>
        <mxCell id="w3Y4UFnjGA6J7m3BMMHb-53" value="&lt;font style=&quot;font-size: 22px;&quot;&gt;normal_logic_sel_i&lt;/font&gt;" style="text;html=1;align=center;verticalAlign=middle;whiteSpace=wrap;rounded=0;" parent="1" vertex="1">
          <mxGeometry x="2864" y="3554.23" width="60" height="30" as="geometry" />
        </mxCell>
        <mxCell id="w3Y4UFnjGA6J7m3BMMHb-60" value="" style="endArrow=classic;html=1;rounded=0;exitX=1;exitY=0.25;exitDx=0;exitDy=0;" parent="1" edge="1">
          <mxGeometry width="50" height="50" relative="1" as="geometry">
            <mxPoint x="2824" y="3724.23" as="sourcePoint" />
            <mxPoint x="2984" y="3724.23" as="targetPoint" />
          </mxGeometry>
        </mxCell>
        <mxCell id="w3Y4UFnjGA6J7m3BMMHb-61" value="&lt;span style=&quot;font-size: 22px;&quot;&gt;normal_result_o&lt;/span&gt;" style="text;html=1;align=center;verticalAlign=middle;whiteSpace=wrap;rounded=0;" parent="1" vertex="1">
          <mxGeometry x="2883" y="3686.23" width="60" height="30" as="geometry" />
        </mxCell>
        <mxCell id="w3Y4UFnjGA6J7m3BMMHb-64" value="" style="endArrow=classic;html=1;rounded=0;exitX=1;exitY=0.25;exitDx=0;exitDy=0;" parent="1" edge="1">
          <mxGeometry width="50" height="50" relative="1" as="geometry">
            <mxPoint x="2644" y="3890" as="sourcePoint" />
            <mxPoint x="2764" y="3890" as="targetPoint" />
          </mxGeometry>
        </mxCell>
        <mxCell id="w3Y4UFnjGA6J7m3BMMHb-65" value="&lt;font style=&quot;font-size: 22px;&quot;&gt;csr_clr&lt;/font&gt;" style="text;html=1;align=center;verticalAlign=middle;whiteSpace=wrap;rounded=0;" parent="1" vertex="1">
          <mxGeometry x="2674" y="3860" width="50" height="30" as="geometry" />
        </mxCell>
        <mxCell id="w3Y4UFnjGA6J7m3BMMHb-67" value="&lt;font style=&quot;font-size: 22px;&quot;&gt;&lt;b&gt;NORMAL_LOGIC&lt;/b&gt;&lt;/font&gt;" style="text;html=1;align=center;verticalAlign=middle;whiteSpace=wrap;rounded=0;" parent="1" vertex="1">
          <mxGeometry x="2774" y="3510" width="60" height="30" as="geometry" />
        </mxCell>
        <mxCell id="K_XwMHUMVquwX1VhCljE-1" value="" style="rounded=0;whiteSpace=wrap;html=1;" parent="1" vertex="1">
          <mxGeometry x="2028" y="4010" width="576" height="370" as="geometry" />
        </mxCell>
        <mxCell id="K_XwMHUMVquwX1VhCljE-2" value="&lt;font style=&quot;font-size: 22px;&quot;&gt;adder_core&lt;/font&gt;" style="rounded=0;whiteSpace=wrap;html=1;strokeColor=default;align=center;verticalAlign=middle;fontFamily=Helvetica;fontSize=12;fontColor=default;fillColor=default;" parent="1" vertex="1">
          <mxGeometry x="2241.5" y="4093.5299999999997" width="160" height="270" as="geometry" />
        </mxCell>
        <mxCell id="K_XwMHUMVquwX1VhCljE-5" value="" style="endArrow=classic;html=1;rounded=0;exitX=1;exitY=0.25;exitDx=0;exitDy=0;" parent="1" edge="1">
          <mxGeometry width="50" height="50" relative="1" as="geometry">
            <mxPoint x="2401.5" y="4213.53" as="sourcePoint" />
            <mxPoint x="2521.5" y="4213.53" as="targetPoint" />
          </mxGeometry>
        </mxCell>
        <mxCell id="K_XwMHUMVquwX1VhCljE-6" value="&lt;span style=&quot;font-size: 22px;&quot;&gt;sum_o&lt;/span&gt;" style="text;html=1;align=center;verticalAlign=middle;whiteSpace=wrap;rounded=0;" parent="1" vertex="1">
          <mxGeometry x="2431.5" y="4183.53" width="60" height="30" as="geometry" />
        </mxCell>
        <mxCell id="K_XwMHUMVquwX1VhCljE-19" value="" style="endArrow=classic;html=1;rounded=0;" parent="1" edge="1">
          <mxGeometry width="50" height="50" relative="1" as="geometry">
            <mxPoint x="2121.5" y="4149.53" as="sourcePoint" />
            <mxPoint x="2241.5" y="4149.53" as="targetPoint" />
          </mxGeometry>
        </mxCell>
        <mxCell id="K_XwMHUMVquwX1VhCljE-20" value="&lt;span style=&quot;font-size: 22px;&quot;&gt;op_1_i&lt;/span&gt;" style="text;html=1;align=center;verticalAlign=middle;whiteSpace=wrap;rounded=0;" parent="1" vertex="1">
          <mxGeometry x="2151.5" y="4113.53" width="60" height="30" as="geometry" />
        </mxCell>
        <mxCell id="K_XwMHUMVquwX1VhCljE-21" value="" style="endArrow=classic;html=1;rounded=0;" parent="1" edge="1">
          <mxGeometry width="50" height="50" relative="1" as="geometry">
            <mxPoint x="2121.5" y="4215.999999999999" as="sourcePoint" />
            <mxPoint x="2241.5" y="4215.999999999999" as="targetPoint" />
          </mxGeometry>
        </mxCell>
        <mxCell id="K_XwMHUMVquwX1VhCljE-22" value="&lt;span style=&quot;font-size: 22px;&quot;&gt;op_2_i&lt;/span&gt;" style="text;html=1;align=center;verticalAlign=middle;whiteSpace=wrap;rounded=0;" parent="1" vertex="1">
          <mxGeometry x="2151.5" y="4179.999999999999" width="60" height="30" as="geometry" />
        </mxCell>
        <mxCell id="K_XwMHUMVquwX1VhCljE-23" value="" style="endArrow=classic;html=1;rounded=0;" parent="1" edge="1">
          <mxGeometry width="50" height="50" relative="1" as="geometry">
            <mxPoint x="2121.5" y="4282.48" as="sourcePoint" />
            <mxPoint x="2241.5" y="4282.48" as="targetPoint" />
          </mxGeometry>
        </mxCell>
        <mxCell id="K_XwMHUMVquwX1VhCljE-24" value="&lt;span style=&quot;font-size: 22px;&quot;&gt;sub_i&lt;/span&gt;" style="text;html=1;align=center;verticalAlign=middle;whiteSpace=wrap;rounded=0;" parent="1" vertex="1">
          <mxGeometry x="2151.5" y="4246.48" width="60" height="30" as="geometry" />
        </mxCell>
        <mxCell id="K_XwMHUMVquwX1VhCljE-27" value="&lt;font style=&quot;font-size: 22px;&quot;&gt;&lt;b&gt;ADDER&lt;/b&gt;&lt;/font&gt;" style="text;html=1;align=center;verticalAlign=middle;whiteSpace=wrap;rounded=0;" parent="1" vertex="1">
          <mxGeometry x="2301.5" y="4023.5299999999997" width="60" height="30" as="geometry" />
        </mxCell>
        <mxCell id="K_XwMHUMVquwX1VhCljE-31" value="&lt;font style=&quot;font-size: 32px;&quot;&gt;&lt;b style=&quot;&quot;&gt;ALU&lt;/b&gt;&lt;/font&gt;" style="text;html=1;align=center;verticalAlign=middle;whiteSpace=wrap;rounded=0;" parent="1" vertex="1">
          <mxGeometry x="2371.5" y="3420" width="60" height="30" as="geometry" />
        </mxCell>
        <mxCell id="K_XwMHUMVquwX1VhCljE-32" value="&lt;b style=&quot;&quot;&gt;&lt;font style=&quot;font-size: 42px;&quot;&gt;ALU&lt;/font&gt;&lt;/b&gt;" style="rounded=0;whiteSpace=wrap;html=1;strokeColor=default;align=center;verticalAlign=middle;fontFamily=Helvetica;fontSize=12;fontColor=default;fillColor=default;" parent="1" vertex="1">
          <mxGeometry x="1070" y="2350" width="340" height="470" as="geometry" />
        </mxCell>
        <mxCell id="K_XwMHUMVquwX1VhCljE-33" value="" style="endArrow=classic;html=1;rounded=0;strokeColor=default;align=center;verticalAlign=middle;fontFamily=Helvetica;fontSize=11;fontColor=default;labelBackgroundColor=default;entryX=-0.016;entryY=0.289;entryDx=0;entryDy=0;entryPerimeter=0;" parent="1" target="UycFjAIk4bAWk2HLjrid-1" edge="1">
          <mxGeometry width="50" height="50" relative="1" as="geometry">
            <mxPoint x="1410" y="2558.82" as="sourcePoint" />
            <mxPoint x="1620" y="2559" as="targetPoint" />
          </mxGeometry>
        </mxCell>
        <mxCell id="K_XwMHUMVquwX1VhCljE-34" value="&lt;div&gt;&lt;span style=&quot;font-size: 22px; background-color: transparent; color: light-dark(rgb(0, 0, 0), rgb(255, 255, 255));&quot;&gt;branch_pc&lt;/span&gt;&lt;/div&gt;" style="text;html=1;align=center;verticalAlign=middle;whiteSpace=wrap;rounded=0;fontFamily=Helvetica;fontSize=12;fontColor=default;" parent="1" vertex="1">
          <mxGeometry x="1510" y="2520.82" width="60" height="30" as="geometry" />
        </mxCell>
        <mxCell id="K_XwMHUMVquwX1VhCljE-35" value="" style="endArrow=classic;html=1;rounded=0;strokeColor=default;align=center;verticalAlign=middle;fontFamily=Helvetica;fontSize=11;fontColor=default;labelBackgroundColor=default;" parent="1" edge="1">
          <mxGeometry width="50" height="50" relative="1" as="geometry">
            <mxPoint x="1410" y="2682.52" as="sourcePoint" />
            <mxPoint x="1627" y="2683" as="targetPoint" />
          </mxGeometry>
        </mxCell>
        <mxCell id="K_XwMHUMVquwX1VhCljE-36" value="&lt;div&gt;&lt;span style=&quot;font-size: 22px; background-color: transparent; color: light-dark(rgb(0, 0, 0), rgb(255, 255, 255));&quot;&gt;branch_taken&lt;/span&gt;&lt;/div&gt;" style="text;html=1;align=center;verticalAlign=middle;whiteSpace=wrap;rounded=0;fontFamily=Helvetica;fontSize=12;fontColor=default;" parent="1" vertex="1">
          <mxGeometry x="1510" y="2400" width="60" height="30" as="geometry" />
        </mxCell>
        <mxCell id="K_XwMHUMVquwX1VhCljE-37" value="" style="shape=trapezoid;perimeter=trapezoidPerimeter;whiteSpace=wrap;html=1;fixedSize=1;rotation=90;" parent="1" vertex="1">
          <mxGeometry x="1485" y="2805" width="350" height="60" as="geometry" />
        </mxCell>
        <mxCell id="K_XwMHUMVquwX1VhCljE-38" value="&lt;font style=&quot;font-size: 22px;&quot;&gt;mux&lt;/font&gt;" style="text;html=1;align=center;verticalAlign=middle;whiteSpace=wrap;rounded=0;" parent="1" vertex="1">
          <mxGeometry x="1630" y="2820" width="60" height="30" as="geometry" />
        </mxCell>
        <mxCell id="K_XwMHUMVquwX1VhCljE-39" value="" style="endArrow=classic;html=1;rounded=0;strokeColor=default;align=center;verticalAlign=middle;fontFamily=Helvetica;fontSize=11;fontColor=default;labelBackgroundColor=default;" parent="1" edge="1">
          <mxGeometry width="50" height="50" relative="1" as="geometry">
            <mxPoint x="1690" y="2840" as="sourcePoint" />
            <mxPoint x="1840" y="2840" as="targetPoint" />
          </mxGeometry>
        </mxCell>
        <mxCell id="K_XwMHUMVquwX1VhCljE-45" value="&lt;span style=&quot;font-size: 22px;&quot;&gt;csr_rf&lt;/span&gt;" style="rounded=0;whiteSpace=wrap;html=1;strokeColor=default;align=center;verticalAlign=middle;fontFamily=Helvetica;fontSize=12;fontColor=default;fillColor=default;" parent="1" vertex="1">
          <mxGeometry y="2840" width="140" height="80" as="geometry" />
        </mxCell>
        <mxCell id="K_XwMHUMVquwX1VhCljE-46" value="&lt;span style=&quot;font-size: 22px;&quot;&gt;dpu_rf&lt;/span&gt;" style="rounded=0;whiteSpace=wrap;html=1;strokeColor=default;align=center;verticalAlign=middle;fontFamily=Helvetica;fontSize=12;fontColor=default;fillColor=default;" parent="1" vertex="1">
          <mxGeometry y="2960" width="140" height="80" as="geometry" />
        </mxCell>
        <mxCell id="K_XwMHUMVquwX1VhCljE-47" value="" style="endArrow=classic;startArrow=classic;html=1;rounded=0;exitX=1;exitY=0.5;exitDx=0;exitDy=0;entryX=-0.012;entryY=0.658;entryDx=0;entryDy=0;entryPerimeter=0;" parent="1" source="K_XwMHUMVquwX1VhCljE-45" target="Bhf9RnwA2u2nLHGRwdH4-29" edge="1">
          <mxGeometry width="50" height="50" relative="1" as="geometry">
            <mxPoint x="300" y="2830" as="sourcePoint" />
            <mxPoint x="350" y="2780" as="targetPoint" />
          </mxGeometry>
        </mxCell>
        <mxCell id="K_XwMHUMVquwX1VhCljE-48" value="" style="endArrow=classic;startArrow=classic;html=1;rounded=0;exitX=1;exitY=0.5;exitDx=0;exitDy=0;entryX=-0.012;entryY=0.658;entryDx=0;entryDy=0;entryPerimeter=0;" parent="1" edge="1">
          <mxGeometry width="50" height="50" relative="1" as="geometry">
            <mxPoint x="139" y="3000.5" as="sourcePoint" />
            <mxPoint x="260" y="2999.5" as="targetPoint" />
          </mxGeometry>
        </mxCell>
        <mxCell id="K_XwMHUMVquwX1VhCljE-49" value="" style="endArrow=classic;html=1;rounded=0;entryX=0.743;entryY=1.011;entryDx=0;entryDy=0;entryPerimeter=0;" parent="1" target="K_XwMHUMVquwX1VhCljE-37" edge="1">
          <mxGeometry width="50" height="50" relative="1" as="geometry">
            <mxPoint x="560" y="2720" as="sourcePoint" />
            <mxPoint x="570" y="2570" as="targetPoint" />
            <Array as="points">
              <mxPoint x="560" y="2840" />
              <mxPoint x="880" y="2840" />
              <mxPoint x="880" y="2920" />
              <mxPoint x="1080" y="2920" />
            </Array>
          </mxGeometry>
        </mxCell>
        <mxCell id="K_XwMHUMVquwX1VhCljE-50" value="&lt;span style=&quot;font-size: 22px;&quot;&gt;csr_reg&lt;/span&gt;" style="text;html=1;align=center;verticalAlign=middle;whiteSpace=wrap;rounded=0;fontFamily=Helvetica;fontSize=12;fontColor=default;" parent="1" vertex="1">
          <mxGeometry x="1520" y="2880" width="60" height="30" as="geometry" />
        </mxCell>
        <mxCell id="K_XwMHUMVquwX1VhCljE-51" value="&lt;font style=&quot;font-size: 22px;&quot;&gt;harzard_check&lt;/font&gt;" style="rounded=0;whiteSpace=wrap;html=1;" parent="1" vertex="1">
          <mxGeometry x="440" y="3199" width="230" height="140" as="geometry" />
        </mxCell>
        <mxCell id="zcntZZ6SdL1lVyJMw14Y-1" value="" style="endArrow=classic;html=1;rounded=0;entryX=-0.015;entryY=0.677;entryDx=0;entryDy=0;entryPerimeter=0;" edge="1" parent="1" target="K_XwMHUMVquwX1VhCljE-38">
          <mxGeometry width="50" height="50" relative="1" as="geometry">
            <mxPoint x="1440" y="2840" as="sourcePoint" />
            <mxPoint x="1630" y="2843" as="targetPoint" />
          </mxGeometry>
        </mxCell>
        <mxCell id="zcntZZ6SdL1lVyJMw14Y-2" value="&lt;span style=&quot;font-size: 22px;&quot;&gt;pc+4&lt;/span&gt;" style="text;html=1;align=center;verticalAlign=middle;whiteSpace=wrap;rounded=0;fontFamily=Helvetica;fontSize=12;fontColor=default;" vertex="1" parent="1">
          <mxGeometry x="1520" y="2805" width="60" height="30" as="geometry" />
        </mxCell>
      </root>
    </mxGraphModel>
  </diagram>
  <diagram id="J2ZN_MZafC4kIUExW4O-" name="第 2 页">
    <mxGraphModel dx="2261" dy="854" grid="1" gridSize="10" guides="1" tooltips="1" connect="1" arrows="1" fold="1" page="1" pageScale="1" pageWidth="827" pageHeight="1169" math="0" shadow="0">
      <root>
        <mxCell id="0" />
        <mxCell id="1" parent="0" />
        <mxCell id="dEOEqoK1SfxjybuqGynu-1" value="" style="endArrow=none;html=1;rounded=0;strokeWidth=2;" parent="1" edge="1">
          <mxGeometry width="50" height="50" relative="1" as="geometry">
            <mxPoint x="200" y="400" as="sourcePoint" />
            <mxPoint x="200" y="360" as="targetPoint" />
          </mxGeometry>
        </mxCell>
        <mxCell id="dEOEqoK1SfxjybuqGynu-2" value="" style="endArrow=none;html=1;rounded=0;strokeWidth=2;" parent="1" edge="1">
          <mxGeometry width="50" height="50" relative="1" as="geometry">
            <mxPoint x="160" y="400" as="sourcePoint" />
            <mxPoint x="200" y="400" as="targetPoint" />
          </mxGeometry>
        </mxCell>
        <mxCell id="dEOEqoK1SfxjybuqGynu-3" value="" style="endArrow=none;html=1;rounded=0;strokeWidth=2;" parent="1" edge="1">
          <mxGeometry width="50" height="50" relative="1" as="geometry">
            <mxPoint x="200" y="360" as="sourcePoint" />
            <mxPoint x="240" y="360" as="targetPoint" />
          </mxGeometry>
        </mxCell>
        <mxCell id="dEOEqoK1SfxjybuqGynu-4" value="" style="endArrow=none;html=1;rounded=0;strokeWidth=2;" parent="1" edge="1">
          <mxGeometry width="50" height="50" relative="1" as="geometry">
            <mxPoint x="240" y="400" as="sourcePoint" />
            <mxPoint x="240" y="360" as="targetPoint" />
          </mxGeometry>
        </mxCell>
        <mxCell id="dEOEqoK1SfxjybuqGynu-5" value="" style="endArrow=none;html=1;rounded=0;strokeWidth=2;" parent="1" edge="1">
          <mxGeometry width="50" height="50" relative="1" as="geometry">
            <mxPoint x="280" y="400" as="sourcePoint" />
            <mxPoint x="280" y="360" as="targetPoint" />
          </mxGeometry>
        </mxCell>
        <mxCell id="dEOEqoK1SfxjybuqGynu-6" value="" style="endArrow=none;html=1;rounded=0;strokeWidth=2;" parent="1" edge="1">
          <mxGeometry width="50" height="50" relative="1" as="geometry">
            <mxPoint x="240" y="400" as="sourcePoint" />
            <mxPoint x="280" y="400" as="targetPoint" />
          </mxGeometry>
        </mxCell>
        <mxCell id="dEOEqoK1SfxjybuqGynu-7" value="" style="endArrow=none;html=1;rounded=0;strokeWidth=2;" parent="1" edge="1">
          <mxGeometry width="50" height="50" relative="1" as="geometry">
            <mxPoint x="280" y="360" as="sourcePoint" />
            <mxPoint x="320" y="360" as="targetPoint" />
          </mxGeometry>
        </mxCell>
        <mxCell id="dEOEqoK1SfxjybuqGynu-8" value="" style="endArrow=none;html=1;rounded=0;strokeWidth=2;" parent="1" edge="1">
          <mxGeometry width="50" height="50" relative="1" as="geometry">
            <mxPoint x="320" y="400" as="sourcePoint" />
            <mxPoint x="320" y="360" as="targetPoint" />
          </mxGeometry>
        </mxCell>
        <mxCell id="dEOEqoK1SfxjybuqGynu-9" value="" style="endArrow=none;html=1;rounded=0;strokeWidth=2;" parent="1" edge="1">
          <mxGeometry width="50" height="50" relative="1" as="geometry">
            <mxPoint x="360" y="400" as="sourcePoint" />
            <mxPoint x="360" y="360" as="targetPoint" />
          </mxGeometry>
        </mxCell>
        <mxCell id="dEOEqoK1SfxjybuqGynu-10" value="" style="endArrow=none;html=1;rounded=0;strokeWidth=2;" parent="1" edge="1">
          <mxGeometry width="50" height="50" relative="1" as="geometry">
            <mxPoint x="320" y="400" as="sourcePoint" />
            <mxPoint x="360" y="400" as="targetPoint" />
          </mxGeometry>
        </mxCell>
        <mxCell id="dEOEqoK1SfxjybuqGynu-11" value="" style="endArrow=none;html=1;rounded=0;strokeWidth=2;" parent="1" edge="1">
          <mxGeometry width="50" height="50" relative="1" as="geometry">
            <mxPoint x="360" y="360" as="sourcePoint" />
            <mxPoint x="400" y="360" as="targetPoint" />
          </mxGeometry>
        </mxCell>
        <mxCell id="dEOEqoK1SfxjybuqGynu-12" value="" style="endArrow=none;html=1;rounded=0;strokeWidth=2;" parent="1" edge="1">
          <mxGeometry width="50" height="50" relative="1" as="geometry">
            <mxPoint x="400" y="400" as="sourcePoint" />
            <mxPoint x="400" y="360" as="targetPoint" />
          </mxGeometry>
        </mxCell>
        <mxCell id="dEOEqoK1SfxjybuqGynu-13" value="" style="endArrow=none;html=1;rounded=0;strokeWidth=2;" parent="1" edge="1">
          <mxGeometry width="50" height="50" relative="1" as="geometry">
            <mxPoint x="440" y="400" as="sourcePoint" />
            <mxPoint x="440" y="360" as="targetPoint" />
          </mxGeometry>
        </mxCell>
        <mxCell id="dEOEqoK1SfxjybuqGynu-14" value="" style="endArrow=none;html=1;rounded=0;strokeWidth=2;" parent="1" edge="1">
          <mxGeometry width="50" height="50" relative="1" as="geometry">
            <mxPoint x="400" y="400" as="sourcePoint" />
            <mxPoint x="440" y="400" as="targetPoint" />
          </mxGeometry>
        </mxCell>
        <mxCell id="dEOEqoK1SfxjybuqGynu-15" value="" style="endArrow=none;html=1;rounded=0;strokeWidth=2;" parent="1" edge="1">
          <mxGeometry width="50" height="50" relative="1" as="geometry">
            <mxPoint x="440" y="360" as="sourcePoint" />
            <mxPoint x="480" y="360" as="targetPoint" />
          </mxGeometry>
        </mxCell>
        <mxCell id="dEOEqoK1SfxjybuqGynu-16" value="" style="endArrow=none;html=1;rounded=0;strokeWidth=2;" parent="1" edge="1">
          <mxGeometry width="50" height="50" relative="1" as="geometry">
            <mxPoint x="480" y="400" as="sourcePoint" />
            <mxPoint x="480" y="360" as="targetPoint" />
          </mxGeometry>
        </mxCell>
        <mxCell id="dEOEqoK1SfxjybuqGynu-17" value="" style="endArrow=none;html=1;rounded=0;strokeWidth=2;" parent="1" edge="1">
          <mxGeometry width="50" height="50" relative="1" as="geometry">
            <mxPoint x="520" y="400" as="sourcePoint" />
            <mxPoint x="520" y="360" as="targetPoint" />
          </mxGeometry>
        </mxCell>
        <mxCell id="dEOEqoK1SfxjybuqGynu-18" value="" style="endArrow=none;html=1;rounded=0;strokeWidth=2;" parent="1" edge="1">
          <mxGeometry width="50" height="50" relative="1" as="geometry">
            <mxPoint x="480" y="400" as="sourcePoint" />
            <mxPoint x="520" y="400" as="targetPoint" />
          </mxGeometry>
        </mxCell>
        <mxCell id="dEOEqoK1SfxjybuqGynu-19" value="" style="endArrow=none;html=1;rounded=0;strokeWidth=2;" parent="1" edge="1">
          <mxGeometry width="50" height="50" relative="1" as="geometry">
            <mxPoint x="520" y="360" as="sourcePoint" />
            <mxPoint x="560" y="360" as="targetPoint" />
          </mxGeometry>
        </mxCell>
        <mxCell id="dEOEqoK1SfxjybuqGynu-20" value="" style="endArrow=none;html=1;rounded=0;strokeWidth=2;" parent="1" edge="1">
          <mxGeometry width="50" height="50" relative="1" as="geometry">
            <mxPoint x="560" y="400" as="sourcePoint" />
            <mxPoint x="560" y="360" as="targetPoint" />
          </mxGeometry>
        </mxCell>
        <mxCell id="dEOEqoK1SfxjybuqGynu-21" value="" style="endArrow=none;html=1;rounded=0;strokeWidth=2;" parent="1" edge="1">
          <mxGeometry width="50" height="50" relative="1" as="geometry">
            <mxPoint x="600" y="400" as="sourcePoint" />
            <mxPoint x="600" y="360" as="targetPoint" />
          </mxGeometry>
        </mxCell>
        <mxCell id="dEOEqoK1SfxjybuqGynu-22" value="" style="endArrow=none;html=1;rounded=0;strokeWidth=2;" parent="1" edge="1">
          <mxGeometry width="50" height="50" relative="1" as="geometry">
            <mxPoint x="560" y="400" as="sourcePoint" />
            <mxPoint x="600" y="400" as="targetPoint" />
          </mxGeometry>
        </mxCell>
        <mxCell id="dEOEqoK1SfxjybuqGynu-23" value="" style="endArrow=none;html=1;rounded=0;strokeWidth=2;" parent="1" edge="1">
          <mxGeometry width="50" height="50" relative="1" as="geometry">
            <mxPoint x="600" y="360" as="sourcePoint" />
            <mxPoint x="640" y="360" as="targetPoint" />
          </mxGeometry>
        </mxCell>
        <mxCell id="dEOEqoK1SfxjybuqGynu-24" value="" style="endArrow=none;html=1;rounded=0;strokeWidth=2;" parent="1" edge="1">
          <mxGeometry width="50" height="50" relative="1" as="geometry">
            <mxPoint x="640" y="400" as="sourcePoint" />
            <mxPoint x="640" y="360" as="targetPoint" />
          </mxGeometry>
        </mxCell>
        <mxCell id="dEOEqoK1SfxjybuqGynu-25" value="" style="endArrow=none;html=1;rounded=0;strokeWidth=2;" parent="1" edge="1">
          <mxGeometry width="50" height="50" relative="1" as="geometry">
            <mxPoint x="680" y="400" as="sourcePoint" />
            <mxPoint x="680" y="360" as="targetPoint" />
          </mxGeometry>
        </mxCell>
        <mxCell id="dEOEqoK1SfxjybuqGynu-26" value="" style="endArrow=none;html=1;rounded=0;strokeWidth=2;" parent="1" edge="1">
          <mxGeometry width="50" height="50" relative="1" as="geometry">
            <mxPoint x="640" y="400" as="sourcePoint" />
            <mxPoint x="680" y="400" as="targetPoint" />
          </mxGeometry>
        </mxCell>
        <mxCell id="dEOEqoK1SfxjybuqGynu-27" value="" style="endArrow=none;html=1;rounded=0;strokeWidth=2;" parent="1" edge="1">
          <mxGeometry width="50" height="50" relative="1" as="geometry">
            <mxPoint x="680" y="360" as="sourcePoint" />
            <mxPoint x="720" y="360" as="targetPoint" />
          </mxGeometry>
        </mxCell>
        <mxCell id="dEOEqoK1SfxjybuqGynu-28" value="" style="endArrow=none;html=1;rounded=0;strokeWidth=2;" parent="1" edge="1">
          <mxGeometry width="50" height="50" relative="1" as="geometry">
            <mxPoint x="720" y="400" as="sourcePoint" />
            <mxPoint x="720" y="360" as="targetPoint" />
          </mxGeometry>
        </mxCell>
        <mxCell id="dEOEqoK1SfxjybuqGynu-29" value="" style="endArrow=none;html=1;rounded=0;strokeWidth=2;" parent="1" edge="1">
          <mxGeometry width="50" height="50" relative="1" as="geometry">
            <mxPoint x="760" y="400" as="sourcePoint" />
            <mxPoint x="760" y="360" as="targetPoint" />
          </mxGeometry>
        </mxCell>
        <mxCell id="dEOEqoK1SfxjybuqGynu-30" value="" style="endArrow=none;html=1;rounded=0;strokeWidth=2;" parent="1" edge="1">
          <mxGeometry width="50" height="50" relative="1" as="geometry">
            <mxPoint x="720" y="400" as="sourcePoint" />
            <mxPoint x="760" y="400" as="targetPoint" />
          </mxGeometry>
        </mxCell>
        <mxCell id="dEOEqoK1SfxjybuqGynu-31" value="" style="endArrow=none;html=1;rounded=0;strokeWidth=2;" parent="1" edge="1">
          <mxGeometry width="50" height="50" relative="1" as="geometry">
            <mxPoint x="760" y="360" as="sourcePoint" />
            <mxPoint x="800" y="360" as="targetPoint" />
          </mxGeometry>
        </mxCell>
        <mxCell id="dEOEqoK1SfxjybuqGynu-32" value="" style="endArrow=none;html=1;rounded=0;strokeWidth=2;" parent="1" edge="1">
          <mxGeometry width="50" height="50" relative="1" as="geometry">
            <mxPoint x="800" y="400" as="sourcePoint" />
            <mxPoint x="800" y="360" as="targetPoint" />
          </mxGeometry>
        </mxCell>
        <mxCell id="dEOEqoK1SfxjybuqGynu-33" value="" style="endArrow=none;html=1;rounded=0;strokeWidth=2;" parent="1" edge="1">
          <mxGeometry width="50" height="50" relative="1" as="geometry">
            <mxPoint x="840" y="400" as="sourcePoint" />
            <mxPoint x="840" y="360" as="targetPoint" />
          </mxGeometry>
        </mxCell>
        <mxCell id="dEOEqoK1SfxjybuqGynu-34" value="" style="endArrow=none;html=1;rounded=0;strokeWidth=2;" parent="1" edge="1">
          <mxGeometry width="50" height="50" relative="1" as="geometry">
            <mxPoint x="800" y="400" as="sourcePoint" />
            <mxPoint x="840" y="400" as="targetPoint" />
          </mxGeometry>
        </mxCell>
        <mxCell id="dEOEqoK1SfxjybuqGynu-35" value="" style="endArrow=none;html=1;rounded=0;strokeWidth=2;" parent="1" edge="1">
          <mxGeometry width="50" height="50" relative="1" as="geometry">
            <mxPoint x="840" y="360" as="sourcePoint" />
            <mxPoint x="880" y="360" as="targetPoint" />
          </mxGeometry>
        </mxCell>
        <mxCell id="dEOEqoK1SfxjybuqGynu-36" value="" style="endArrow=none;html=1;rounded=0;strokeWidth=2;" parent="1" edge="1">
          <mxGeometry width="50" height="50" relative="1" as="geometry">
            <mxPoint x="880" y="400" as="sourcePoint" />
            <mxPoint x="880" y="360" as="targetPoint" />
          </mxGeometry>
        </mxCell>
        <mxCell id="dEOEqoK1SfxjybuqGynu-37" value="" style="endArrow=none;html=1;rounded=0;strokeWidth=2;" parent="1" edge="1">
          <mxGeometry width="50" height="50" relative="1" as="geometry">
            <mxPoint x="920" y="400" as="sourcePoint" />
            <mxPoint x="920" y="360" as="targetPoint" />
          </mxGeometry>
        </mxCell>
        <mxCell id="dEOEqoK1SfxjybuqGynu-38" value="" style="endArrow=none;html=1;rounded=0;strokeWidth=2;" parent="1" edge="1">
          <mxGeometry width="50" height="50" relative="1" as="geometry">
            <mxPoint x="880" y="400" as="sourcePoint" />
            <mxPoint x="920" y="400" as="targetPoint" />
          </mxGeometry>
        </mxCell>
        <mxCell id="dEOEqoK1SfxjybuqGynu-39" value="" style="endArrow=none;html=1;rounded=0;strokeWidth=2;" parent="1" edge="1">
          <mxGeometry width="50" height="50" relative="1" as="geometry">
            <mxPoint x="920" y="360" as="sourcePoint" />
            <mxPoint x="960" y="360" as="targetPoint" />
          </mxGeometry>
        </mxCell>
        <mxCell id="dEOEqoK1SfxjybuqGynu-40" value="" style="endArrow=none;html=1;rounded=0;strokeWidth=2;" parent="1" edge="1">
          <mxGeometry width="50" height="50" relative="1" as="geometry">
            <mxPoint x="960" y="400" as="sourcePoint" />
            <mxPoint x="960" y="360" as="targetPoint" />
          </mxGeometry>
        </mxCell>
        <mxCell id="dEOEqoK1SfxjybuqGynu-41" value="" style="endArrow=none;html=1;rounded=0;strokeWidth=2;" parent="1" edge="1">
          <mxGeometry width="50" height="50" relative="1" as="geometry">
            <mxPoint x="1000" y="400" as="sourcePoint" />
            <mxPoint x="1000" y="360" as="targetPoint" />
          </mxGeometry>
        </mxCell>
        <mxCell id="dEOEqoK1SfxjybuqGynu-42" value="" style="endArrow=none;html=1;rounded=0;strokeWidth=2;" parent="1" edge="1">
          <mxGeometry width="50" height="50" relative="1" as="geometry">
            <mxPoint x="960" y="400" as="sourcePoint" />
            <mxPoint x="1000" y="400" as="targetPoint" />
          </mxGeometry>
        </mxCell>
        <mxCell id="dEOEqoK1SfxjybuqGynu-43" value="" style="endArrow=none;html=1;rounded=0;strokeWidth=2;" parent="1" edge="1">
          <mxGeometry width="50" height="50" relative="1" as="geometry">
            <mxPoint x="1000" y="360" as="sourcePoint" />
            <mxPoint x="1040" y="360" as="targetPoint" />
          </mxGeometry>
        </mxCell>
        <mxCell id="dEOEqoK1SfxjybuqGynu-44" value="" style="endArrow=none;html=1;rounded=0;strokeWidth=2;" parent="1" edge="1">
          <mxGeometry width="50" height="50" relative="1" as="geometry">
            <mxPoint x="1040" y="400" as="sourcePoint" />
            <mxPoint x="1040" y="360" as="targetPoint" />
          </mxGeometry>
        </mxCell>
        <mxCell id="dEOEqoK1SfxjybuqGynu-45" value="" style="endArrow=none;html=1;rounded=0;strokeWidth=2;" parent="1" edge="1">
          <mxGeometry width="50" height="50" relative="1" as="geometry">
            <mxPoint x="1080" y="400" as="sourcePoint" />
            <mxPoint x="1080" y="360" as="targetPoint" />
          </mxGeometry>
        </mxCell>
        <mxCell id="dEOEqoK1SfxjybuqGynu-46" value="" style="endArrow=none;html=1;rounded=0;strokeWidth=2;" parent="1" edge="1">
          <mxGeometry width="50" height="50" relative="1" as="geometry">
            <mxPoint x="1040" y="400" as="sourcePoint" />
            <mxPoint x="1080" y="400" as="targetPoint" />
          </mxGeometry>
        </mxCell>
        <mxCell id="dEOEqoK1SfxjybuqGynu-47" value="" style="endArrow=none;html=1;rounded=0;strokeWidth=2;" parent="1" edge="1">
          <mxGeometry width="50" height="50" relative="1" as="geometry">
            <mxPoint x="1080" y="360" as="sourcePoint" />
            <mxPoint x="1120" y="360" as="targetPoint" />
          </mxGeometry>
        </mxCell>
        <mxCell id="dEOEqoK1SfxjybuqGynu-48" value="" style="endArrow=none;html=1;rounded=0;strokeWidth=2;" parent="1" edge="1">
          <mxGeometry width="50" height="50" relative="1" as="geometry">
            <mxPoint x="1120" y="400" as="sourcePoint" />
            <mxPoint x="1120" y="360" as="targetPoint" />
          </mxGeometry>
        </mxCell>
        <mxCell id="dEOEqoK1SfxjybuqGynu-49" value="" style="endArrow=none;html=1;rounded=0;strokeWidth=2;" parent="1" edge="1">
          <mxGeometry width="50" height="50" relative="1" as="geometry">
            <mxPoint x="1160" y="400" as="sourcePoint" />
            <mxPoint x="1160" y="360" as="targetPoint" />
          </mxGeometry>
        </mxCell>
        <mxCell id="dEOEqoK1SfxjybuqGynu-50" value="" style="endArrow=none;html=1;rounded=0;strokeWidth=2;" parent="1" edge="1">
          <mxGeometry width="50" height="50" relative="1" as="geometry">
            <mxPoint x="1120" y="400" as="sourcePoint" />
            <mxPoint x="1160" y="400" as="targetPoint" />
          </mxGeometry>
        </mxCell>
        <mxCell id="dEOEqoK1SfxjybuqGynu-51" value="" style="endArrow=none;html=1;rounded=0;strokeWidth=2;" parent="1" edge="1">
          <mxGeometry width="50" height="50" relative="1" as="geometry">
            <mxPoint x="1160" y="360" as="sourcePoint" />
            <mxPoint x="1200" y="360" as="targetPoint" />
          </mxGeometry>
        </mxCell>
        <mxCell id="dEOEqoK1SfxjybuqGynu-52" value="" style="endArrow=none;html=1;rounded=0;strokeWidth=2;" parent="1" edge="1">
          <mxGeometry width="50" height="50" relative="1" as="geometry">
            <mxPoint x="1200" y="400" as="sourcePoint" />
            <mxPoint x="1200" y="360" as="targetPoint" />
          </mxGeometry>
        </mxCell>
        <mxCell id="dEOEqoK1SfxjybuqGynu-53" value="" style="endArrow=none;html=1;rounded=0;strokeWidth=2;" parent="1" edge="1">
          <mxGeometry width="50" height="50" relative="1" as="geometry">
            <mxPoint x="1240" y="400" as="sourcePoint" />
            <mxPoint x="1240" y="360" as="targetPoint" />
          </mxGeometry>
        </mxCell>
        <mxCell id="dEOEqoK1SfxjybuqGynu-54" value="" style="endArrow=none;html=1;rounded=0;strokeWidth=2;" parent="1" edge="1">
          <mxGeometry width="50" height="50" relative="1" as="geometry">
            <mxPoint x="1200" y="400" as="sourcePoint" />
            <mxPoint x="1240" y="400" as="targetPoint" />
          </mxGeometry>
        </mxCell>
        <mxCell id="dEOEqoK1SfxjybuqGynu-55" value="" style="endArrow=none;html=1;rounded=0;strokeWidth=2;" parent="1" edge="1">
          <mxGeometry width="50" height="50" relative="1" as="geometry">
            <mxPoint x="1240" y="360" as="sourcePoint" />
            <mxPoint x="1280" y="360" as="targetPoint" />
          </mxGeometry>
        </mxCell>
        <mxCell id="dEOEqoK1SfxjybuqGynu-56" value="" style="endArrow=none;html=1;rounded=0;strokeWidth=2;" parent="1" edge="1">
          <mxGeometry width="50" height="50" relative="1" as="geometry">
            <mxPoint x="1280" y="400" as="sourcePoint" />
            <mxPoint x="1280" y="360" as="targetPoint" />
          </mxGeometry>
        </mxCell>
        <mxCell id="dEOEqoK1SfxjybuqGynu-57" value="" style="endArrow=none;html=1;rounded=0;strokeWidth=2;" parent="1" edge="1">
          <mxGeometry width="50" height="50" relative="1" as="geometry">
            <mxPoint x="1320" y="400" as="sourcePoint" />
            <mxPoint x="1320" y="360" as="targetPoint" />
          </mxGeometry>
        </mxCell>
        <mxCell id="dEOEqoK1SfxjybuqGynu-58" value="" style="endArrow=none;html=1;rounded=0;strokeWidth=2;" parent="1" edge="1">
          <mxGeometry width="50" height="50" relative="1" as="geometry">
            <mxPoint x="1280" y="400" as="sourcePoint" />
            <mxPoint x="1320" y="400" as="targetPoint" />
          </mxGeometry>
        </mxCell>
        <mxCell id="dEOEqoK1SfxjybuqGynu-59" value="" style="endArrow=none;html=1;rounded=0;strokeWidth=2;" parent="1" edge="1">
          <mxGeometry width="50" height="50" relative="1" as="geometry">
            <mxPoint x="1320" y="360" as="sourcePoint" />
            <mxPoint x="1360" y="360" as="targetPoint" />
          </mxGeometry>
        </mxCell>
        <mxCell id="dEOEqoK1SfxjybuqGynu-60" value="" style="endArrow=none;html=1;rounded=0;strokeWidth=2;" parent="1" edge="1">
          <mxGeometry width="50" height="50" relative="1" as="geometry">
            <mxPoint x="1360" y="400" as="sourcePoint" />
            <mxPoint x="1360" y="360" as="targetPoint" />
          </mxGeometry>
        </mxCell>
        <mxCell id="dEOEqoK1SfxjybuqGynu-61" value="" style="endArrow=none;html=1;rounded=0;strokeWidth=2;" parent="1" edge="1">
          <mxGeometry width="50" height="50" relative="1" as="geometry">
            <mxPoint x="1400" y="400" as="sourcePoint" />
            <mxPoint x="1400" y="360" as="targetPoint" />
          </mxGeometry>
        </mxCell>
        <mxCell id="dEOEqoK1SfxjybuqGynu-62" value="" style="endArrow=none;html=1;rounded=0;strokeWidth=2;" parent="1" edge="1">
          <mxGeometry width="50" height="50" relative="1" as="geometry">
            <mxPoint x="1360" y="400" as="sourcePoint" />
            <mxPoint x="1400" y="400" as="targetPoint" />
          </mxGeometry>
        </mxCell>
        <mxCell id="dEOEqoK1SfxjybuqGynu-63" value="" style="endArrow=none;html=1;rounded=0;strokeWidth=2;" parent="1" edge="1">
          <mxGeometry width="50" height="50" relative="1" as="geometry">
            <mxPoint x="1400" y="360" as="sourcePoint" />
            <mxPoint x="1440" y="360" as="targetPoint" />
          </mxGeometry>
        </mxCell>
        <mxCell id="dEOEqoK1SfxjybuqGynu-64" value="" style="endArrow=none;html=1;rounded=0;strokeWidth=2;" parent="1" edge="1">
          <mxGeometry width="50" height="50" relative="1" as="geometry">
            <mxPoint x="1440" y="400" as="sourcePoint" />
            <mxPoint x="1440" y="360" as="targetPoint" />
          </mxGeometry>
        </mxCell>
        <mxCell id="dEOEqoK1SfxjybuqGynu-65" value="" style="endArrow=none;html=1;rounded=0;strokeWidth=2;" parent="1" edge="1">
          <mxGeometry width="50" height="50" relative="1" as="geometry">
            <mxPoint x="160" y="440" as="sourcePoint" />
            <mxPoint x="1440" y="440" as="targetPoint" />
          </mxGeometry>
        </mxCell>
        <mxCell id="dEOEqoK1SfxjybuqGynu-66" value="" style="endArrow=none;html=1;rounded=0;strokeWidth=2;" parent="1" edge="1">
          <mxGeometry width="50" height="50" relative="1" as="geometry">
            <mxPoint x="160" y="480" as="sourcePoint" />
            <mxPoint x="1440" y="480" as="targetPoint" />
          </mxGeometry>
        </mxCell>
        <mxCell id="dEOEqoK1SfxjybuqGynu-72" value="" style="group" parent="1" vertex="1" connectable="0">
          <mxGeometry x="190" y="440" width="10" height="40" as="geometry" />
        </mxCell>
        <mxCell id="dEOEqoK1SfxjybuqGynu-67" value="" style="endArrow=none;html=1;rounded=0;strokeWidth=2;strokeColor=default;align=center;verticalAlign=middle;fontFamily=Helvetica;fontSize=11;fontColor=default;labelBackgroundColor=default;" parent="dEOEqoK1SfxjybuqGynu-72" edge="1">
          <mxGeometry width="50" height="50" relative="1" as="geometry">
            <mxPoint as="sourcePoint" />
            <mxPoint x="10" y="40" as="targetPoint" />
          </mxGeometry>
        </mxCell>
        <mxCell id="dEOEqoK1SfxjybuqGynu-69" value="" style="endArrow=none;html=1;rounded=0;strokeWidth=2;strokeColor=default;align=center;verticalAlign=middle;fontFamily=Helvetica;fontSize=11;fontColor=default;labelBackgroundColor=default;" parent="dEOEqoK1SfxjybuqGynu-72" edge="1">
          <mxGeometry width="50" height="50" relative="1" as="geometry">
            <mxPoint x="10" as="sourcePoint" />
            <mxPoint y="40" as="targetPoint" />
          </mxGeometry>
        </mxCell>
        <mxCell id="dEOEqoK1SfxjybuqGynu-73" value="&lt;font style=&quot;font-size: 22px;&quot;&gt;clk&lt;/font&gt;" style="text;html=1;align=center;verticalAlign=middle;whiteSpace=wrap;rounded=0;" parent="1" vertex="1">
          <mxGeometry x="90" y="370" width="60" height="30" as="geometry" />
        </mxCell>
        <mxCell id="dEOEqoK1SfxjybuqGynu-74" value="&lt;font style=&quot;font-size: 22px;&quot;&gt;h&lt;/font&gt;&lt;span style=&quot;font-size: 22px; background-color: transparent; color: light-dark(rgb(0, 0, 0), rgb(255, 255, 255));&quot;&gt;addr&lt;/span&gt;" style="text;html=1;align=center;verticalAlign=middle;whiteSpace=wrap;rounded=0;" parent="1" vertex="1">
          <mxGeometry x="90" y="450" width="60" height="30" as="geometry" />
        </mxCell>
        <mxCell id="dEOEqoK1SfxjybuqGynu-75" value="" style="group" parent="1" vertex="1" connectable="0">
          <mxGeometry x="270" y="440" width="10" height="40" as="geometry" />
        </mxCell>
        <mxCell id="dEOEqoK1SfxjybuqGynu-76" value="" style="endArrow=none;html=1;rounded=0;strokeWidth=2;strokeColor=default;align=center;verticalAlign=middle;fontFamily=Helvetica;fontSize=11;fontColor=default;labelBackgroundColor=default;" parent="dEOEqoK1SfxjybuqGynu-75" edge="1">
          <mxGeometry width="50" height="50" relative="1" as="geometry">
            <mxPoint as="sourcePoint" />
            <mxPoint x="10" y="40" as="targetPoint" />
          </mxGeometry>
        </mxCell>
        <mxCell id="dEOEqoK1SfxjybuqGynu-77" value="" style="endArrow=none;html=1;rounded=0;strokeWidth=2;strokeColor=default;align=center;verticalAlign=middle;fontFamily=Helvetica;fontSize=11;fontColor=default;labelBackgroundColor=default;" parent="dEOEqoK1SfxjybuqGynu-75" edge="1">
          <mxGeometry width="50" height="50" relative="1" as="geometry">
            <mxPoint x="10" as="sourcePoint" />
            <mxPoint y="40" as="targetPoint" />
          </mxGeometry>
        </mxCell>
        <mxCell id="dEOEqoK1SfxjybuqGynu-78" value="&lt;font style=&quot;font-size: 22px;&quot;&gt;0&lt;/font&gt;" style="text;html=1;align=center;verticalAlign=middle;whiteSpace=wrap;rounded=0;" parent="1" vertex="1">
          <mxGeometry x="208" y="445" width="60" height="30" as="geometry" />
        </mxCell>
        <mxCell id="dEOEqoK1SfxjybuqGynu-79" value="" style="group" parent="1" vertex="1" connectable="0">
          <mxGeometry x="350" y="440" width="10" height="40" as="geometry" />
        </mxCell>
        <mxCell id="dEOEqoK1SfxjybuqGynu-80" value="" style="endArrow=none;html=1;rounded=0;strokeWidth=2;strokeColor=default;align=center;verticalAlign=middle;fontFamily=Helvetica;fontSize=11;fontColor=default;labelBackgroundColor=default;" parent="dEOEqoK1SfxjybuqGynu-79" edge="1">
          <mxGeometry width="50" height="50" relative="1" as="geometry">
            <mxPoint as="sourcePoint" />
            <mxPoint x="10" y="40" as="targetPoint" />
          </mxGeometry>
        </mxCell>
        <mxCell id="dEOEqoK1SfxjybuqGynu-81" value="" style="endArrow=none;html=1;rounded=0;strokeWidth=2;strokeColor=default;align=center;verticalAlign=middle;fontFamily=Helvetica;fontSize=11;fontColor=default;labelBackgroundColor=default;" parent="dEOEqoK1SfxjybuqGynu-79" edge="1">
          <mxGeometry width="50" height="50" relative="1" as="geometry">
            <mxPoint x="10" as="sourcePoint" />
            <mxPoint y="40" as="targetPoint" />
          </mxGeometry>
        </mxCell>
        <mxCell id="dEOEqoK1SfxjybuqGynu-82" value="&lt;font style=&quot;font-size: 22px;&quot;&gt;4&lt;/font&gt;" style="text;html=1;align=center;verticalAlign=middle;whiteSpace=wrap;rounded=0;" parent="1" vertex="1">
          <mxGeometry x="285" y="445" width="60" height="30" as="geometry" />
        </mxCell>
        <mxCell id="dEOEqoK1SfxjybuqGynu-83" value="&lt;font style=&quot;font-size: 22px;&quot;&gt;hrdata&lt;/font&gt;" style="text;html=1;align=center;verticalAlign=middle;whiteSpace=wrap;rounded=0;" parent="1" vertex="1">
          <mxGeometry x="90" y="530" width="60" height="30" as="geometry" />
        </mxCell>
        <mxCell id="dEOEqoK1SfxjybuqGynu-86" value="" style="endArrow=none;html=1;rounded=0;strokeWidth=2;" parent="1" edge="1">
          <mxGeometry width="50" height="50" relative="1" as="geometry">
            <mxPoint x="160" y="519" as="sourcePoint" />
            <mxPoint x="1440" y="519" as="targetPoint" />
          </mxGeometry>
        </mxCell>
        <mxCell id="dEOEqoK1SfxjybuqGynu-87" value="" style="endArrow=none;html=1;rounded=0;strokeWidth=2;" parent="1" edge="1">
          <mxGeometry width="50" height="50" relative="1" as="geometry">
            <mxPoint x="160" y="559" as="sourcePoint" />
            <mxPoint x="1440" y="559" as="targetPoint" />
          </mxGeometry>
        </mxCell>
        <mxCell id="dEOEqoK1SfxjybuqGynu-88" value="" style="group" parent="1" vertex="1" connectable="0">
          <mxGeometry x="430" y="519" width="10" height="40" as="geometry" />
        </mxCell>
        <mxCell id="dEOEqoK1SfxjybuqGynu-89" value="" style="endArrow=none;html=1;rounded=0;strokeWidth=2;strokeColor=default;align=center;verticalAlign=middle;fontFamily=Helvetica;fontSize=11;fontColor=default;labelBackgroundColor=default;" parent="dEOEqoK1SfxjybuqGynu-88" edge="1">
          <mxGeometry width="50" height="50" relative="1" as="geometry">
            <mxPoint as="sourcePoint" />
            <mxPoint x="10" y="40" as="targetPoint" />
          </mxGeometry>
        </mxCell>
        <mxCell id="dEOEqoK1SfxjybuqGynu-90" value="" style="endArrow=none;html=1;rounded=0;strokeWidth=2;strokeColor=default;align=center;verticalAlign=middle;fontFamily=Helvetica;fontSize=11;fontColor=default;labelBackgroundColor=default;" parent="dEOEqoK1SfxjybuqGynu-88" edge="1">
          <mxGeometry width="50" height="50" relative="1" as="geometry">
            <mxPoint x="10" as="sourcePoint" />
            <mxPoint y="40" as="targetPoint" />
          </mxGeometry>
        </mxCell>
        <mxCell id="dEOEqoK1SfxjybuqGynu-91" value="" style="group" parent="1" vertex="1" connectable="0">
          <mxGeometry x="270" y="519" width="10" height="40" as="geometry" />
        </mxCell>
        <mxCell id="dEOEqoK1SfxjybuqGynu-92" value="" style="endArrow=none;html=1;rounded=0;strokeWidth=2;strokeColor=default;align=center;verticalAlign=middle;fontFamily=Helvetica;fontSize=11;fontColor=default;labelBackgroundColor=default;" parent="dEOEqoK1SfxjybuqGynu-91" edge="1">
          <mxGeometry width="50" height="50" relative="1" as="geometry">
            <mxPoint as="sourcePoint" />
            <mxPoint x="10" y="40" as="targetPoint" />
          </mxGeometry>
        </mxCell>
        <mxCell id="dEOEqoK1SfxjybuqGynu-93" value="" style="endArrow=none;html=1;rounded=0;strokeWidth=2;strokeColor=default;align=center;verticalAlign=middle;fontFamily=Helvetica;fontSize=11;fontColor=default;labelBackgroundColor=default;" parent="dEOEqoK1SfxjybuqGynu-91" edge="1">
          <mxGeometry width="50" height="50" relative="1" as="geometry">
            <mxPoint x="10" as="sourcePoint" />
            <mxPoint y="40" as="targetPoint" />
          </mxGeometry>
        </mxCell>
        <mxCell id="dEOEqoK1SfxjybuqGynu-94" value="&lt;font style=&quot;font-size: 22px;&quot;&gt;inst_0&lt;/font&gt;" style="text;html=1;align=center;verticalAlign=middle;whiteSpace=wrap;rounded=0;" parent="1" vertex="1">
          <mxGeometry x="285" y="524" width="60" height="30" as="geometry" />
        </mxCell>
        <mxCell id="dEOEqoK1SfxjybuqGynu-95" value="" style="group" parent="1" vertex="1" connectable="0">
          <mxGeometry x="350" y="519" width="10" height="40" as="geometry" />
        </mxCell>
        <mxCell id="dEOEqoK1SfxjybuqGynu-96" value="" style="endArrow=none;html=1;rounded=0;strokeWidth=2;strokeColor=default;align=center;verticalAlign=middle;fontFamily=Helvetica;fontSize=11;fontColor=default;labelBackgroundColor=default;" parent="dEOEqoK1SfxjybuqGynu-95" edge="1">
          <mxGeometry width="50" height="50" relative="1" as="geometry">
            <mxPoint as="sourcePoint" />
            <mxPoint x="10" y="40" as="targetPoint" />
          </mxGeometry>
        </mxCell>
        <mxCell id="dEOEqoK1SfxjybuqGynu-97" value="" style="endArrow=none;html=1;rounded=0;strokeWidth=2;strokeColor=default;align=center;verticalAlign=middle;fontFamily=Helvetica;fontSize=11;fontColor=default;labelBackgroundColor=default;" parent="dEOEqoK1SfxjybuqGynu-95" edge="1">
          <mxGeometry width="50" height="50" relative="1" as="geometry">
            <mxPoint x="10" as="sourcePoint" />
            <mxPoint y="40" as="targetPoint" />
          </mxGeometry>
        </mxCell>
        <mxCell id="dEOEqoK1SfxjybuqGynu-98" value="&lt;font style=&quot;font-size: 22px;&quot;&gt;inst1&lt;/font&gt;" style="text;html=1;align=center;verticalAlign=middle;whiteSpace=wrap;rounded=0;" parent="1" vertex="1">
          <mxGeometry x="370" y="524" width="60" height="30" as="geometry" />
        </mxCell>
        <mxCell id="dEOEqoK1SfxjybuqGynu-99" value="&lt;font style=&quot;font-size: 22px;&quot;&gt;nxt_state&lt;/font&gt;" style="text;html=1;align=center;verticalAlign=middle;whiteSpace=wrap;rounded=0;" parent="1" vertex="1">
          <mxGeometry x="80" y="610" width="60" height="30" as="geometry" />
        </mxCell>
        <mxCell id="dEOEqoK1SfxjybuqGynu-100" value="" style="endArrow=none;html=1;rounded=0;strokeWidth=2;" parent="1" edge="1">
          <mxGeometry width="50" height="50" relative="1" as="geometry">
            <mxPoint x="160" y="600" as="sourcePoint" />
            <mxPoint x="1440" y="600" as="targetPoint" />
          </mxGeometry>
        </mxCell>
        <mxCell id="dEOEqoK1SfxjybuqGynu-101" value="" style="endArrow=none;html=1;rounded=0;strokeWidth=2;" parent="1" edge="1">
          <mxGeometry width="50" height="50" relative="1" as="geometry">
            <mxPoint x="160" y="640" as="sourcePoint" />
            <mxPoint x="1440" y="640" as="targetPoint" />
          </mxGeometry>
        </mxCell>
        <mxCell id="dEOEqoK1SfxjybuqGynu-102" value="" style="group" parent="1" vertex="1" connectable="0">
          <mxGeometry x="430" y="600" width="10" height="40" as="geometry" />
        </mxCell>
        <mxCell id="dEOEqoK1SfxjybuqGynu-103" value="" style="endArrow=none;html=1;rounded=0;strokeWidth=2;strokeColor=default;align=center;verticalAlign=middle;fontFamily=Helvetica;fontSize=11;fontColor=default;labelBackgroundColor=default;" parent="dEOEqoK1SfxjybuqGynu-102" edge="1">
          <mxGeometry width="50" height="50" relative="1" as="geometry">
            <mxPoint as="sourcePoint" />
            <mxPoint x="10" y="40" as="targetPoint" />
          </mxGeometry>
        </mxCell>
        <mxCell id="dEOEqoK1SfxjybuqGynu-104" value="" style="endArrow=none;html=1;rounded=0;strokeWidth=2;strokeColor=default;align=center;verticalAlign=middle;fontFamily=Helvetica;fontSize=11;fontColor=default;labelBackgroundColor=default;" parent="dEOEqoK1SfxjybuqGynu-102" edge="1">
          <mxGeometry width="50" height="50" relative="1" as="geometry">
            <mxPoint x="10" as="sourcePoint" />
            <mxPoint y="40" as="targetPoint" />
          </mxGeometry>
        </mxCell>
        <mxCell id="dEOEqoK1SfxjybuqGynu-108" value="&lt;font style=&quot;font-size: 22px;&quot;&gt;seq&lt;/font&gt;" style="text;html=1;align=center;verticalAlign=middle;whiteSpace=wrap;rounded=0;" parent="1" vertex="1">
          <mxGeometry x="220" y="605" width="60" height="30" as="geometry" />
        </mxCell>
        <mxCell id="dEOEqoK1SfxjybuqGynu-109" value="" style="group" parent="1" vertex="1" connectable="0">
          <mxGeometry x="350" y="600" width="10" height="40" as="geometry" />
        </mxCell>
        <mxCell id="dEOEqoK1SfxjybuqGynu-110" value="" style="endArrow=none;html=1;rounded=0;strokeWidth=2;strokeColor=default;align=center;verticalAlign=middle;fontFamily=Helvetica;fontSize=11;fontColor=default;labelBackgroundColor=default;" parent="dEOEqoK1SfxjybuqGynu-109" edge="1">
          <mxGeometry width="50" height="50" relative="1" as="geometry">
            <mxPoint as="sourcePoint" />
            <mxPoint x="10" y="40" as="targetPoint" />
          </mxGeometry>
        </mxCell>
        <mxCell id="dEOEqoK1SfxjybuqGynu-111" value="" style="endArrow=none;html=1;rounded=0;strokeWidth=2;strokeColor=default;align=center;verticalAlign=middle;fontFamily=Helvetica;fontSize=11;fontColor=default;labelBackgroundColor=default;" parent="dEOEqoK1SfxjybuqGynu-109" edge="1">
          <mxGeometry width="50" height="50" relative="1" as="geometry">
            <mxPoint x="10" as="sourcePoint" />
            <mxPoint y="40" as="targetPoint" />
          </mxGeometry>
        </mxCell>
        <mxCell id="dEOEqoK1SfxjybuqGynu-112" value="&lt;font style=&quot;font-size: 22px;&quot;&gt;branch&lt;/font&gt;" style="text;html=1;align=center;verticalAlign=middle;whiteSpace=wrap;rounded=0;" parent="1" vertex="1">
          <mxGeometry x="368" y="605" width="60" height="30" as="geometry" />
        </mxCell>
        <mxCell id="dEOEqoK1SfxjybuqGynu-114" value="" style="group" parent="1" vertex="1" connectable="0">
          <mxGeometry x="430" y="440" width="10" height="40" as="geometry" />
        </mxCell>
        <mxCell id="dEOEqoK1SfxjybuqGynu-115" value="" style="endArrow=none;html=1;rounded=0;strokeWidth=2;strokeColor=default;align=center;verticalAlign=middle;fontFamily=Helvetica;fontSize=11;fontColor=default;labelBackgroundColor=default;" parent="dEOEqoK1SfxjybuqGynu-114" edge="1">
          <mxGeometry width="50" height="50" relative="1" as="geometry">
            <mxPoint as="sourcePoint" />
            <mxPoint x="10" y="40" as="targetPoint" />
          </mxGeometry>
        </mxCell>
        <mxCell id="dEOEqoK1SfxjybuqGynu-116" value="" style="endArrow=none;html=1;rounded=0;strokeWidth=2;strokeColor=default;align=center;verticalAlign=middle;fontFamily=Helvetica;fontSize=11;fontColor=default;labelBackgroundColor=default;" parent="dEOEqoK1SfxjybuqGynu-114" edge="1">
          <mxGeometry width="50" height="50" relative="1" as="geometry">
            <mxPoint x="10" as="sourcePoint" />
            <mxPoint y="40" as="targetPoint" />
          </mxGeometry>
        </mxCell>
        <mxCell id="dEOEqoK1SfxjybuqGynu-117" value="&lt;font style=&quot;font-size: 22px;&quot;&gt;b_pc&lt;/font&gt;" style="text;html=1;align=center;verticalAlign=middle;whiteSpace=wrap;rounded=0;" parent="1" vertex="1">
          <mxGeometry x="368" y="445" width="60" height="30" as="geometry" />
        </mxCell>
        <mxCell id="dEOEqoK1SfxjybuqGynu-118" value="" style="group" parent="1" vertex="1" connectable="0">
          <mxGeometry x="510" y="440" width="10" height="40" as="geometry" />
        </mxCell>
        <mxCell id="dEOEqoK1SfxjybuqGynu-119" value="" style="endArrow=none;html=1;rounded=0;strokeWidth=2;strokeColor=default;align=center;verticalAlign=middle;fontFamily=Helvetica;fontSize=11;fontColor=default;labelBackgroundColor=default;" parent="dEOEqoK1SfxjybuqGynu-118" edge="1">
          <mxGeometry width="50" height="50" relative="1" as="geometry">
            <mxPoint as="sourcePoint" />
            <mxPoint x="10" y="40" as="targetPoint" />
          </mxGeometry>
        </mxCell>
        <mxCell id="dEOEqoK1SfxjybuqGynu-120" value="" style="endArrow=none;html=1;rounded=0;strokeWidth=2;strokeColor=default;align=center;verticalAlign=middle;fontFamily=Helvetica;fontSize=11;fontColor=default;labelBackgroundColor=default;" parent="dEOEqoK1SfxjybuqGynu-118" edge="1">
          <mxGeometry width="50" height="50" relative="1" as="geometry">
            <mxPoint x="10" as="sourcePoint" />
            <mxPoint y="40" as="targetPoint" />
          </mxGeometry>
        </mxCell>
        <mxCell id="dEOEqoK1SfxjybuqGynu-122" value="" style="group" parent="1" vertex="1" connectable="0">
          <mxGeometry x="510" y="520" width="10" height="40" as="geometry" />
        </mxCell>
        <mxCell id="dEOEqoK1SfxjybuqGynu-123" value="" style="endArrow=none;html=1;rounded=0;strokeWidth=2;strokeColor=default;align=center;verticalAlign=middle;fontFamily=Helvetica;fontSize=11;fontColor=default;labelBackgroundColor=default;" parent="dEOEqoK1SfxjybuqGynu-122" edge="1">
          <mxGeometry width="50" height="50" relative="1" as="geometry">
            <mxPoint as="sourcePoint" />
            <mxPoint x="10" y="40" as="targetPoint" />
          </mxGeometry>
        </mxCell>
        <mxCell id="dEOEqoK1SfxjybuqGynu-124" value="" style="endArrow=none;html=1;rounded=0;strokeWidth=2;strokeColor=default;align=center;verticalAlign=middle;fontFamily=Helvetica;fontSize=11;fontColor=default;labelBackgroundColor=default;" parent="dEOEqoK1SfxjybuqGynu-122" edge="1">
          <mxGeometry width="50" height="50" relative="1" as="geometry">
            <mxPoint x="10" as="sourcePoint" />
            <mxPoint y="40" as="targetPoint" />
          </mxGeometry>
        </mxCell>
        <mxCell id="dEOEqoK1SfxjybuqGynu-126" value="&lt;font style=&quot;font-size: 22px;&quot;&gt;seq&lt;/font&gt;" style="text;html=1;align=center;verticalAlign=middle;whiteSpace=wrap;rounded=0;" parent="1" vertex="1">
          <mxGeometry x="485" y="605" width="60" height="30" as="geometry" />
        </mxCell>
        <mxCell id="dEOEqoK1SfxjybuqGynu-130" value="&lt;font style=&quot;font-size: 22px;&quot;&gt;b_pc+4&lt;/font&gt;" style="text;html=1;align=center;verticalAlign=middle;whiteSpace=wrap;rounded=0;" parent="1" vertex="1">
          <mxGeometry x="447" y="445" width="60" height="30" as="geometry" />
        </mxCell>
        <mxCell id="dEOEqoK1SfxjybuqGynu-131" value="" style="group" parent="1" vertex="1" connectable="0">
          <mxGeometry x="590" y="440" width="10" height="40" as="geometry" />
        </mxCell>
        <mxCell id="dEOEqoK1SfxjybuqGynu-132" value="" style="endArrow=none;html=1;rounded=0;strokeWidth=2;strokeColor=default;align=center;verticalAlign=middle;fontFamily=Helvetica;fontSize=11;fontColor=default;labelBackgroundColor=default;" parent="dEOEqoK1SfxjybuqGynu-131" edge="1">
          <mxGeometry width="50" height="50" relative="1" as="geometry">
            <mxPoint as="sourcePoint" />
            <mxPoint x="10" y="40" as="targetPoint" />
          </mxGeometry>
        </mxCell>
        <mxCell id="dEOEqoK1SfxjybuqGynu-133" value="" style="endArrow=none;html=1;rounded=0;strokeWidth=2;strokeColor=default;align=center;verticalAlign=middle;fontFamily=Helvetica;fontSize=11;fontColor=default;labelBackgroundColor=default;" parent="dEOEqoK1SfxjybuqGynu-131" edge="1">
          <mxGeometry width="50" height="50" relative="1" as="geometry">
            <mxPoint x="10" as="sourcePoint" />
            <mxPoint y="40" as="targetPoint" />
          </mxGeometry>
        </mxCell>
        <mxCell id="dEOEqoK1SfxjybuqGynu-134" value="" style="endArrow=none;html=1;rounded=0;strokeWidth=2;" parent="1" edge="1">
          <mxGeometry width="50" height="50" relative="1" as="geometry">
            <mxPoint x="158" y="720" as="sourcePoint" />
            <mxPoint x="280" y="720" as="targetPoint" />
          </mxGeometry>
        </mxCell>
        <mxCell id="dEOEqoK1SfxjybuqGynu-135" value="&lt;span style=&quot;font-size: 22px;&quot;&gt;inst_wr_vld&lt;/span&gt;" style="text;html=1;align=center;verticalAlign=middle;whiteSpace=wrap;rounded=0;" parent="1" vertex="1">
          <mxGeometry x="60" y="690" width="60" height="30" as="geometry" />
        </mxCell>
        <mxCell id="dEOEqoK1SfxjybuqGynu-136" value="" style="endArrow=none;html=1;rounded=0;strokeWidth=2;" parent="1" edge="1">
          <mxGeometry width="50" height="50" relative="1" as="geometry">
            <mxPoint x="280" y="720" as="sourcePoint" />
            <mxPoint x="280" y="680" as="targetPoint" />
          </mxGeometry>
        </mxCell>
        <mxCell id="dEOEqoK1SfxjybuqGynu-137" value="" style="endArrow=none;html=1;rounded=0;strokeWidth=2;" parent="1" edge="1">
          <mxGeometry width="50" height="50" relative="1" as="geometry">
            <mxPoint x="280" y="680" as="sourcePoint" />
            <mxPoint x="600" y="680" as="targetPoint" />
          </mxGeometry>
        </mxCell>
        <mxCell id="dEOEqoK1SfxjybuqGynu-141" value="&lt;font style=&quot;font-size: 22px;&quot;&gt;inst2&lt;/font&gt;" style="text;html=1;align=center;verticalAlign=middle;whiteSpace=wrap;rounded=0;" parent="1" vertex="1">
          <mxGeometry x="447" y="525" width="60" height="30" as="geometry" />
        </mxCell>
        <mxCell id="WYpFTbH1E8DcSd8Jz4Ve-2" value="&lt;span style=&quot;font-size: 22px;&quot;&gt;ctrl_force&lt;/span&gt;" style="text;html=1;align=center;verticalAlign=middle;whiteSpace=wrap;rounded=0;" parent="1" vertex="1">
          <mxGeometry x="60" y="770" width="60" height="30" as="geometry" />
        </mxCell>
        <mxCell id="WYpFTbH1E8DcSd8Jz4Ve-4" value="" style="endArrow=none;html=1;rounded=0;strokeWidth=2;" parent="1" edge="1">
          <mxGeometry width="50" height="50" relative="1" as="geometry">
            <mxPoint x="158" y="800" as="sourcePoint" />
            <mxPoint x="600" y="800" as="targetPoint" />
          </mxGeometry>
        </mxCell>
        <mxCell id="WYpFTbH1E8DcSd8Jz4Ve-5" value="" style="endArrow=none;html=1;rounded=0;strokeWidth=2;" parent="1" edge="1">
          <mxGeometry width="50" height="50" relative="1" as="geometry">
            <mxPoint x="600" y="800" as="sourcePoint" />
            <mxPoint x="600" y="760" as="targetPoint" />
          </mxGeometry>
        </mxCell>
        <mxCell id="WYpFTbH1E8DcSd8Jz4Ve-6" value="" style="endArrow=none;html=1;rounded=0;strokeWidth=2;" parent="1" edge="1">
          <mxGeometry width="50" height="50" relative="1" as="geometry">
            <mxPoint x="600" y="760" as="sourcePoint" />
            <mxPoint x="680" y="760" as="targetPoint" />
          </mxGeometry>
        </mxCell>
        <mxCell id="WYpFTbH1E8DcSd8Jz4Ve-7" value="" style="group" parent="1" vertex="1" connectable="0">
          <mxGeometry x="590" y="600" width="10" height="40" as="geometry" />
        </mxCell>
        <mxCell id="WYpFTbH1E8DcSd8Jz4Ve-8" value="" style="endArrow=none;html=1;rounded=0;strokeWidth=2;strokeColor=default;align=center;verticalAlign=middle;fontFamily=Helvetica;fontSize=11;fontColor=default;labelBackgroundColor=default;" parent="WYpFTbH1E8DcSd8Jz4Ve-7" edge="1">
          <mxGeometry width="50" height="50" relative="1" as="geometry">
            <mxPoint as="sourcePoint" />
            <mxPoint x="10" y="40" as="targetPoint" />
          </mxGeometry>
        </mxCell>
        <mxCell id="WYpFTbH1E8DcSd8Jz4Ve-9" value="" style="endArrow=none;html=1;rounded=0;strokeWidth=2;strokeColor=default;align=center;verticalAlign=middle;fontFamily=Helvetica;fontSize=11;fontColor=default;labelBackgroundColor=default;" parent="WYpFTbH1E8DcSd8Jz4Ve-7" edge="1">
          <mxGeometry width="50" height="50" relative="1" as="geometry">
            <mxPoint x="10" as="sourcePoint" />
            <mxPoint y="40" as="targetPoint" />
          </mxGeometry>
        </mxCell>
        <mxCell id="WYpFTbH1E8DcSd8Jz4Ve-10" value="" style="group" parent="1" vertex="1" connectable="0">
          <mxGeometry x="590" y="520" width="10" height="40" as="geometry" />
        </mxCell>
        <mxCell id="WYpFTbH1E8DcSd8Jz4Ve-11" value="" style="endArrow=none;html=1;rounded=0;strokeWidth=2;strokeColor=default;align=center;verticalAlign=middle;fontFamily=Helvetica;fontSize=11;fontColor=default;labelBackgroundColor=default;" parent="WYpFTbH1E8DcSd8Jz4Ve-10" edge="1">
          <mxGeometry width="50" height="50" relative="1" as="geometry">
            <mxPoint as="sourcePoint" />
            <mxPoint x="10" y="40" as="targetPoint" />
          </mxGeometry>
        </mxCell>
        <mxCell id="WYpFTbH1E8DcSd8Jz4Ve-12" value="" style="endArrow=none;html=1;rounded=0;strokeWidth=2;strokeColor=default;align=center;verticalAlign=middle;fontFamily=Helvetica;fontSize=11;fontColor=default;labelBackgroundColor=default;" parent="WYpFTbH1E8DcSd8Jz4Ve-10" edge="1">
          <mxGeometry width="50" height="50" relative="1" as="geometry">
            <mxPoint x="10" as="sourcePoint" />
            <mxPoint y="40" as="targetPoint" />
          </mxGeometry>
        </mxCell>
        <mxCell id="WYpFTbH1E8DcSd8Jz4Ve-13" value="&lt;font style=&quot;font-size: 22px;&quot;&gt;inst3&lt;/font&gt;" style="text;html=1;align=center;verticalAlign=middle;whiteSpace=wrap;rounded=0;" parent="1" vertex="1">
          <mxGeometry x="529" y="525" width="60" height="30" as="geometry" />
        </mxCell>
        <mxCell id="WYpFTbH1E8DcSd8Jz4Ve-14" value="&lt;font style=&quot;font-size: 22px;&quot;&gt;fc_pc&lt;/font&gt;" style="text;html=1;align=center;verticalAlign=middle;whiteSpace=wrap;rounded=0;" parent="1" vertex="1">
          <mxGeometry x="606" y="445" width="60" height="30" as="geometry" />
        </mxCell>
        <mxCell id="WYpFTbH1E8DcSd8Jz4Ve-15" value="&lt;font style=&quot;font-size: 22px;&quot;&gt;force&lt;/font&gt;" style="text;html=1;align=center;verticalAlign=middle;whiteSpace=wrap;rounded=0;" parent="1" vertex="1">
          <mxGeometry x="610" y="605" width="60" height="30" as="geometry" />
        </mxCell>
        <mxCell id="WYpFTbH1E8DcSd8Jz4Ve-16" value="" style="group" parent="1" vertex="1" connectable="0">
          <mxGeometry x="670" y="600" width="10" height="40" as="geometry" />
        </mxCell>
        <mxCell id="WYpFTbH1E8DcSd8Jz4Ve-17" value="" style="endArrow=none;html=1;rounded=0;strokeWidth=2;strokeColor=default;align=center;verticalAlign=middle;fontFamily=Helvetica;fontSize=11;fontColor=default;labelBackgroundColor=default;" parent="WYpFTbH1E8DcSd8Jz4Ve-16" edge="1">
          <mxGeometry width="50" height="50" relative="1" as="geometry">
            <mxPoint as="sourcePoint" />
            <mxPoint x="10" y="40" as="targetPoint" />
          </mxGeometry>
        </mxCell>
        <mxCell id="WYpFTbH1E8DcSd8Jz4Ve-18" value="" style="endArrow=none;html=1;rounded=0;strokeWidth=2;strokeColor=default;align=center;verticalAlign=middle;fontFamily=Helvetica;fontSize=11;fontColor=default;labelBackgroundColor=default;" parent="WYpFTbH1E8DcSd8Jz4Ve-16" edge="1">
          <mxGeometry width="50" height="50" relative="1" as="geometry">
            <mxPoint x="10" as="sourcePoint" />
            <mxPoint y="40" as="targetPoint" />
          </mxGeometry>
        </mxCell>
        <mxCell id="WYpFTbH1E8DcSd8Jz4Ve-19" value="" style="endArrow=none;html=1;rounded=0;strokeWidth=2;" parent="1" edge="1">
          <mxGeometry width="50" height="50" relative="1" as="geometry">
            <mxPoint x="599.26" y="720" as="sourcePoint" />
            <mxPoint x="599.26" y="680" as="targetPoint" />
          </mxGeometry>
        </mxCell>
        <mxCell id="WYpFTbH1E8DcSd8Jz4Ve-20" value="" style="endArrow=none;html=1;rounded=0;strokeWidth=2;" parent="1" edge="1">
          <mxGeometry width="50" height="50" relative="1" as="geometry">
            <mxPoint x="600" y="719.26" as="sourcePoint" />
            <mxPoint x="680" y="719.26" as="targetPoint" />
          </mxGeometry>
        </mxCell>
        <mxCell id="WYpFTbH1E8DcSd8Jz4Ve-21" value="" style="group" parent="1" vertex="1" connectable="0">
          <mxGeometry x="670" y="440" width="10" height="40" as="geometry" />
        </mxCell>
        <mxCell id="WYpFTbH1E8DcSd8Jz4Ve-22" value="" style="endArrow=none;html=1;rounded=0;strokeWidth=2;strokeColor=default;align=center;verticalAlign=middle;fontFamily=Helvetica;fontSize=11;fontColor=default;labelBackgroundColor=default;" parent="WYpFTbH1E8DcSd8Jz4Ve-21" edge="1">
          <mxGeometry width="50" height="50" relative="1" as="geometry">
            <mxPoint as="sourcePoint" />
            <mxPoint x="10" y="40" as="targetPoint" />
          </mxGeometry>
        </mxCell>
        <mxCell id="WYpFTbH1E8DcSd8Jz4Ve-23" value="" style="endArrow=none;html=1;rounded=0;strokeWidth=2;strokeColor=default;align=center;verticalAlign=middle;fontFamily=Helvetica;fontSize=11;fontColor=default;labelBackgroundColor=default;" parent="WYpFTbH1E8DcSd8Jz4Ve-21" edge="1">
          <mxGeometry width="50" height="50" relative="1" as="geometry">
            <mxPoint x="10" as="sourcePoint" />
            <mxPoint y="40" as="targetPoint" />
          </mxGeometry>
        </mxCell>
        <mxCell id="WYpFTbH1E8DcSd8Jz4Ve-24" value="" style="group" parent="1" vertex="1" connectable="0">
          <mxGeometry x="670" y="520" width="10" height="40" as="geometry" />
        </mxCell>
        <mxCell id="WYpFTbH1E8DcSd8Jz4Ve-25" value="" style="endArrow=none;html=1;rounded=0;strokeWidth=2;strokeColor=default;align=center;verticalAlign=middle;fontFamily=Helvetica;fontSize=11;fontColor=default;labelBackgroundColor=default;" parent="WYpFTbH1E8DcSd8Jz4Ve-24" edge="1">
          <mxGeometry width="50" height="50" relative="1" as="geometry">
            <mxPoint as="sourcePoint" />
            <mxPoint x="10" y="40" as="targetPoint" />
          </mxGeometry>
        </mxCell>
        <mxCell id="WYpFTbH1E8DcSd8Jz4Ve-26" value="" style="endArrow=none;html=1;rounded=0;strokeWidth=2;strokeColor=default;align=center;verticalAlign=middle;fontFamily=Helvetica;fontSize=11;fontColor=default;labelBackgroundColor=default;" parent="WYpFTbH1E8DcSd8Jz4Ve-24" edge="1">
          <mxGeometry width="50" height="50" relative="1" as="geometry">
            <mxPoint x="10" as="sourcePoint" />
            <mxPoint y="40" as="targetPoint" />
          </mxGeometry>
        </mxCell>
        <mxCell id="WYpFTbH1E8DcSd8Jz4Ve-27" value="&lt;font style=&quot;font-size: 22px;&quot;&gt;inst4&lt;/font&gt;" style="text;html=1;align=center;verticalAlign=middle;whiteSpace=wrap;rounded=0;" parent="1" vertex="1">
          <mxGeometry x="606" y="525" width="60" height="30" as="geometry" />
        </mxCell>
        <mxCell id="WYpFTbH1E8DcSd8Jz4Ve-28" value="&lt;font style=&quot;font-size: 22px;&quot;&gt;seq&lt;/font&gt;" style="text;html=1;align=center;verticalAlign=middle;whiteSpace=wrap;rounded=0;" parent="1" vertex="1">
          <mxGeometry x="690" y="605" width="60" height="30" as="geometry" />
        </mxCell>
        <mxCell id="WYpFTbH1E8DcSd8Jz4Ve-29" value="&lt;font style=&quot;font-size: 22px;&quot;&gt;fc_pc+4&lt;/font&gt;" style="text;html=1;align=center;verticalAlign=middle;whiteSpace=wrap;rounded=0;" parent="1" vertex="1">
          <mxGeometry x="686" y="445" width="60" height="30" as="geometry" />
        </mxCell>
        <mxCell id="WYpFTbH1E8DcSd8Jz4Ve-33" value="" style="endArrow=none;html=1;rounded=0;strokeWidth=2;" parent="1" edge="1">
          <mxGeometry width="50" height="50" relative="1" as="geometry">
            <mxPoint x="680" y="720" as="sourcePoint" />
            <mxPoint x="680" y="680" as="targetPoint" />
          </mxGeometry>
        </mxCell>
        <mxCell id="WYpFTbH1E8DcSd8Jz4Ve-34" value="" style="endArrow=none;html=1;rounded=0;strokeWidth=2;" parent="1" edge="1">
          <mxGeometry width="50" height="50" relative="1" as="geometry">
            <mxPoint x="680" y="680" as="sourcePoint" />
            <mxPoint x="840" y="680" as="targetPoint" />
          </mxGeometry>
        </mxCell>
        <mxCell id="WYpFTbH1E8DcSd8Jz4Ve-37" value="" style="endArrow=none;html=1;rounded=0;strokeWidth=2;" parent="1" edge="1">
          <mxGeometry width="50" height="50" relative="1" as="geometry">
            <mxPoint x="680" y="800" as="sourcePoint" />
            <mxPoint x="680" y="760" as="targetPoint" />
          </mxGeometry>
        </mxCell>
        <mxCell id="WYpFTbH1E8DcSd8Jz4Ve-38" value="" style="endArrow=none;html=1;rounded=0;strokeWidth=2;" parent="1" edge="1">
          <mxGeometry width="50" height="50" relative="1" as="geometry">
            <mxPoint x="680" y="800" as="sourcePoint" />
            <mxPoint x="840" y="800" as="targetPoint" />
          </mxGeometry>
        </mxCell>
        <mxCell id="WYpFTbH1E8DcSd8Jz4Ve-39" value="&lt;span style=&quot;font-size: 22px;&quot;&gt;inst_fifo_wr&lt;/span&gt;" style="text;html=1;align=center;verticalAlign=middle;whiteSpace=wrap;rounded=0;" parent="1" vertex="1">
          <mxGeometry x="19" y="1090" width="60" height="30" as="geometry" />
        </mxCell>
        <mxCell id="WYpFTbH1E8DcSd8Jz4Ve-66" value="&lt;font style=&quot;font-size: 22px;&quot;&gt;b_pc+8&lt;/font&gt;" style="text;html=1;align=center;verticalAlign=middle;whiteSpace=wrap;rounded=0;" parent="1" vertex="1">
          <mxGeometry x="526" y="445" width="60" height="30" as="geometry" />
        </mxCell>
        <mxCell id="WYpFTbH1E8DcSd8Jz4Ve-67" value="" style="group" parent="1" vertex="1" connectable="0">
          <mxGeometry x="750" y="440" width="10" height="40" as="geometry" />
        </mxCell>
        <mxCell id="WYpFTbH1E8DcSd8Jz4Ve-68" value="" style="endArrow=none;html=1;rounded=0;strokeWidth=2;strokeColor=default;align=center;verticalAlign=middle;fontFamily=Helvetica;fontSize=11;fontColor=default;labelBackgroundColor=default;" parent="WYpFTbH1E8DcSd8Jz4Ve-67" edge="1">
          <mxGeometry width="50" height="50" relative="1" as="geometry">
            <mxPoint as="sourcePoint" />
            <mxPoint x="10" y="40" as="targetPoint" />
          </mxGeometry>
        </mxCell>
        <mxCell id="WYpFTbH1E8DcSd8Jz4Ve-69" value="" style="endArrow=none;html=1;rounded=0;strokeWidth=2;strokeColor=default;align=center;verticalAlign=middle;fontFamily=Helvetica;fontSize=11;fontColor=default;labelBackgroundColor=default;" parent="WYpFTbH1E8DcSd8Jz4Ve-67" edge="1">
          <mxGeometry width="50" height="50" relative="1" as="geometry">
            <mxPoint x="10" as="sourcePoint" />
            <mxPoint y="40" as="targetPoint" />
          </mxGeometry>
        </mxCell>
        <mxCell id="WYpFTbH1E8DcSd8Jz4Ve-70" value="&lt;font style=&quot;font-size: 22px;&quot;&gt;inst5&lt;/font&gt;" style="text;html=1;align=center;verticalAlign=middle;whiteSpace=wrap;rounded=0;" parent="1" vertex="1">
          <mxGeometry x="688" y="524" width="60" height="30" as="geometry" />
        </mxCell>
        <mxCell id="WYpFTbH1E8DcSd8Jz4Ve-76" value="&lt;span style=&quot;font-size: 22px;&quot;&gt;inst_fifo_clean&lt;/span&gt;" style="text;html=1;align=center;verticalAlign=middle;whiteSpace=wrap;rounded=0;" parent="1" vertex="1">
          <mxGeometry x="39" y="850" width="60" height="30" as="geometry" />
        </mxCell>
        <mxCell id="WYpFTbH1E8DcSd8Jz4Ve-77" value="" style="endArrow=none;html=1;rounded=0;strokeWidth=2;" parent="1" edge="1">
          <mxGeometry width="50" height="50" relative="1" as="geometry">
            <mxPoint x="157" y="880" as="sourcePoint" />
            <mxPoint x="599" y="880" as="targetPoint" />
          </mxGeometry>
        </mxCell>
        <mxCell id="WYpFTbH1E8DcSd8Jz4Ve-78" value="" style="endArrow=none;html=1;rounded=0;strokeWidth=2;" parent="1" edge="1">
          <mxGeometry width="50" height="50" relative="1" as="geometry">
            <mxPoint x="599" y="880" as="sourcePoint" />
            <mxPoint x="599" y="840" as="targetPoint" />
          </mxGeometry>
        </mxCell>
        <mxCell id="WYpFTbH1E8DcSd8Jz4Ve-80" value="" style="endArrow=none;html=1;rounded=0;strokeWidth=2;" parent="1" edge="1">
          <mxGeometry width="50" height="50" relative="1" as="geometry">
            <mxPoint x="679" y="880" as="sourcePoint" />
            <mxPoint x="679" y="840" as="targetPoint" />
          </mxGeometry>
        </mxCell>
        <mxCell id="WYpFTbH1E8DcSd8Jz4Ve-81" value="" style="endArrow=none;html=1;rounded=0;strokeWidth=2;" parent="1" edge="1">
          <mxGeometry width="50" height="50" relative="1" as="geometry">
            <mxPoint x="679" y="880" as="sourcePoint" />
            <mxPoint x="839" y="880" as="targetPoint" />
          </mxGeometry>
        </mxCell>
        <mxCell id="WYpFTbH1E8DcSd8Jz4Ve-141" value="&lt;span style=&quot;font-size: 22px;&quot;&gt;dpu_ready_i&lt;/span&gt;" style="text;html=1;align=center;verticalAlign=middle;whiteSpace=wrap;rounded=0;" parent="1" vertex="1">
          <mxGeometry x="19" y="931" width="60" height="30" as="geometry" />
        </mxCell>
        <mxCell id="WYpFTbH1E8DcSd8Jz4Ve-144" value="" style="endArrow=none;html=1;rounded=0;strokeWidth=2;" parent="1" edge="1">
          <mxGeometry width="50" height="50" relative="1" as="geometry">
            <mxPoint x="159" y="920" as="sourcePoint" />
            <mxPoint x="439" y="920" as="targetPoint" />
          </mxGeometry>
        </mxCell>
        <mxCell id="t1AuJr_MX7NSQzu2g1b--2" value="" style="endArrow=none;html=1;rounded=0;strokeWidth=2;" parent="1" edge="1">
          <mxGeometry width="50" height="50" relative="1" as="geometry">
            <mxPoint x="439" y="961" as="sourcePoint" />
            <mxPoint x="519" y="961" as="targetPoint" />
          </mxGeometry>
        </mxCell>
        <mxCell id="t1AuJr_MX7NSQzu2g1b--3" value="" style="group" parent="1" vertex="1" connectable="0">
          <mxGeometry x="750" y="520" width="10" height="40" as="geometry" />
        </mxCell>
        <mxCell id="t1AuJr_MX7NSQzu2g1b--4" value="" style="endArrow=none;html=1;rounded=0;strokeWidth=2;strokeColor=default;align=center;verticalAlign=middle;fontFamily=Helvetica;fontSize=11;fontColor=default;labelBackgroundColor=default;" parent="t1AuJr_MX7NSQzu2g1b--3" edge="1">
          <mxGeometry width="50" height="50" relative="1" as="geometry">
            <mxPoint as="sourcePoint" />
            <mxPoint x="10" y="40" as="targetPoint" />
          </mxGeometry>
        </mxCell>
        <mxCell id="t1AuJr_MX7NSQzu2g1b--5" value="" style="endArrow=none;html=1;rounded=0;strokeWidth=2;strokeColor=default;align=center;verticalAlign=middle;fontFamily=Helvetica;fontSize=11;fontColor=default;labelBackgroundColor=default;" parent="t1AuJr_MX7NSQzu2g1b--3" edge="1">
          <mxGeometry width="50" height="50" relative="1" as="geometry">
            <mxPoint x="10" as="sourcePoint" />
            <mxPoint y="40" as="targetPoint" />
          </mxGeometry>
        </mxCell>
        <mxCell id="t1AuJr_MX7NSQzu2g1b--6" value="&lt;font style=&quot;font-size: 22px;&quot;&gt;inst6&lt;/font&gt;" style="text;html=1;align=center;verticalAlign=middle;whiteSpace=wrap;rounded=0;" parent="1" vertex="1">
          <mxGeometry x="770" y="525" width="60" height="30" as="geometry" />
        </mxCell>
        <mxCell id="t1AuJr_MX7NSQzu2g1b--9" value="" style="endArrow=none;html=1;rounded=0;strokeWidth=2;" parent="1" edge="1">
          <mxGeometry width="50" height="50" relative="1" as="geometry">
            <mxPoint x="679" y="921" as="sourcePoint" />
            <mxPoint x="839" y="921" as="targetPoint" />
          </mxGeometry>
        </mxCell>
        <mxCell id="t1AuJr_MX7NSQzu2g1b--10" value="&lt;font style=&quot;font-size: 22px;&quot;&gt;fc_pc+8&lt;/font&gt;" style="text;html=1;align=center;verticalAlign=middle;whiteSpace=wrap;rounded=0;" parent="1" vertex="1">
          <mxGeometry x="766" y="445" width="60" height="30" as="geometry" />
        </mxCell>
        <mxCell id="t1AuJr_MX7NSQzu2g1b--11" value="" style="group" parent="1" vertex="1" connectable="0">
          <mxGeometry x="830" y="440" width="10" height="40" as="geometry" />
        </mxCell>
        <mxCell id="t1AuJr_MX7NSQzu2g1b--12" value="" style="endArrow=none;html=1;rounded=0;strokeWidth=2;strokeColor=default;align=center;verticalAlign=middle;fontFamily=Helvetica;fontSize=11;fontColor=default;labelBackgroundColor=default;" parent="t1AuJr_MX7NSQzu2g1b--11" edge="1">
          <mxGeometry width="50" height="50" relative="1" as="geometry">
            <mxPoint as="sourcePoint" />
            <mxPoint x="10" y="40" as="targetPoint" />
          </mxGeometry>
        </mxCell>
        <mxCell id="t1AuJr_MX7NSQzu2g1b--13" value="" style="endArrow=none;html=1;rounded=0;strokeWidth=2;strokeColor=default;align=center;verticalAlign=middle;fontFamily=Helvetica;fontSize=11;fontColor=default;labelBackgroundColor=default;" parent="t1AuJr_MX7NSQzu2g1b--11" edge="1">
          <mxGeometry width="50" height="50" relative="1" as="geometry">
            <mxPoint x="10" as="sourcePoint" />
            <mxPoint y="40" as="targetPoint" />
          </mxGeometry>
        </mxCell>
        <mxCell id="t1AuJr_MX7NSQzu2g1b--14" value="" style="endArrow=none;html=1;rounded=0;strokeWidth=2;" parent="1" edge="1">
          <mxGeometry width="50" height="50" relative="1" as="geometry">
            <mxPoint x="439" y="961" as="sourcePoint" />
            <mxPoint x="439" y="921" as="targetPoint" />
          </mxGeometry>
        </mxCell>
        <mxCell id="t1AuJr_MX7NSQzu2g1b--15" value="" style="endArrow=none;html=1;rounded=0;strokeWidth=2;" parent="1" edge="1">
          <mxGeometry width="50" height="50" relative="1" as="geometry">
            <mxPoint x="519" y="961" as="sourcePoint" />
            <mxPoint x="519" y="921" as="targetPoint" />
          </mxGeometry>
        </mxCell>
        <mxCell id="t1AuJr_MX7NSQzu2g1b--16" value="" style="endArrow=none;html=1;rounded=0;strokeWidth=2;" parent="1" edge="1">
          <mxGeometry width="50" height="50" relative="1" as="geometry">
            <mxPoint x="519" y="921" as="sourcePoint" />
            <mxPoint x="679" y="921" as="targetPoint" />
          </mxGeometry>
        </mxCell>
        <mxCell id="t1AuJr_MX7NSQzu2g1b--17" value="&lt;span style=&quot;font-size: 22px;&quot;&gt;pfu_valid_o&lt;/span&gt;" style="text;html=1;align=center;verticalAlign=middle;whiteSpace=wrap;rounded=0;" parent="1" vertex="1">
          <mxGeometry x="19" y="1011" width="60" height="30" as="geometry" />
        </mxCell>
        <mxCell id="t1AuJr_MX7NSQzu2g1b--18" value="" style="endArrow=none;html=1;rounded=0;strokeWidth=2;" parent="1" edge="1">
          <mxGeometry width="50" height="50" relative="1" as="geometry">
            <mxPoint x="159" y="1040" as="sourcePoint" />
            <mxPoint x="279" y="1040" as="targetPoint" />
          </mxGeometry>
        </mxCell>
        <mxCell id="t1AuJr_MX7NSQzu2g1b--19" value="" style="endArrow=none;html=1;rounded=0;strokeWidth=2;" parent="1" edge="1">
          <mxGeometry width="50" height="50" relative="1" as="geometry">
            <mxPoint x="279" y="1000" as="sourcePoint" />
            <mxPoint x="599" y="1000" as="targetPoint" />
          </mxGeometry>
        </mxCell>
        <mxCell id="t1AuJr_MX7NSQzu2g1b--21" value="" style="endArrow=none;html=1;rounded=0;strokeWidth=2;" parent="1" edge="1">
          <mxGeometry width="50" height="50" relative="1" as="geometry">
            <mxPoint x="279" y="1041" as="sourcePoint" />
            <mxPoint x="279" y="1001" as="targetPoint" />
          </mxGeometry>
        </mxCell>
        <mxCell id="t1AuJr_MX7NSQzu2g1b--24" value="" style="endArrow=none;html=1;rounded=0;strokeWidth=2;" parent="1" edge="1">
          <mxGeometry width="50" height="50" relative="1" as="geometry">
            <mxPoint x="599" y="840" as="sourcePoint" />
            <mxPoint x="679" y="840" as="targetPoint" />
          </mxGeometry>
        </mxCell>
        <mxCell id="6gmVuUp7KB0H1C8zffUQ-1" value="" style="endArrow=none;html=1;rounded=0;strokeWidth=2;" parent="1" edge="1">
          <mxGeometry width="50" height="50" relative="1" as="geometry">
            <mxPoint x="159" y="1119.72" as="sourcePoint" />
            <mxPoint x="439" y="1119" as="targetPoint" />
          </mxGeometry>
        </mxCell>
        <mxCell id="6gmVuUp7KB0H1C8zffUQ-2" value="" style="endArrow=none;html=1;rounded=0;strokeWidth=2;" parent="1" edge="1">
          <mxGeometry width="50" height="50" relative="1" as="geometry">
            <mxPoint x="438" y="1078.72" as="sourcePoint" />
            <mxPoint x="599" y="1079" as="targetPoint" />
          </mxGeometry>
        </mxCell>
        <mxCell id="6gmVuUp7KB0H1C8zffUQ-3" value="" style="endArrow=none;html=1;rounded=0;strokeWidth=2;" parent="1" edge="1">
          <mxGeometry width="50" height="50" relative="1" as="geometry">
            <mxPoint x="438.31" y="1120" as="sourcePoint" />
            <mxPoint x="438.31" y="1080" as="targetPoint" />
          </mxGeometry>
        </mxCell>
        <mxCell id="6gmVuUp7KB0H1C8zffUQ-6" value="" style="endArrow=none;html=1;rounded=0;strokeWidth=2;" parent="1" edge="1">
          <mxGeometry width="50" height="50" relative="1" as="geometry">
            <mxPoint x="599" y="1120" as="sourcePoint" />
            <mxPoint x="599" y="1080" as="targetPoint" />
          </mxGeometry>
        </mxCell>
        <mxCell id="6gmVuUp7KB0H1C8zffUQ-7" value="" style="endArrow=none;html=1;rounded=0;strokeWidth=2;" parent="1" edge="1">
          <mxGeometry width="50" height="50" relative="1" as="geometry">
            <mxPoint x="599" y="1120" as="sourcePoint" />
            <mxPoint x="839" y="1120" as="targetPoint" />
          </mxGeometry>
        </mxCell>
        <mxCell id="6gmVuUp7KB0H1C8zffUQ-8" value="" style="endArrow=none;html=1;rounded=0;strokeWidth=2;" parent="1" edge="1">
          <mxGeometry width="50" height="50" relative="1" as="geometry">
            <mxPoint x="599" y="1041" as="sourcePoint" />
            <mxPoint x="599" y="1001" as="targetPoint" />
          </mxGeometry>
        </mxCell>
        <mxCell id="6gmVuUp7KB0H1C8zffUQ-9" value="" style="endArrow=none;html=1;rounded=0;strokeWidth=2;" parent="1" edge="1">
          <mxGeometry width="50" height="50" relative="1" as="geometry">
            <mxPoint x="599" y="1040" as="sourcePoint" />
            <mxPoint x="679" y="1040" as="targetPoint" />
          </mxGeometry>
        </mxCell>
        <mxCell id="6gmVuUp7KB0H1C8zffUQ-10" value="" style="endArrow=none;html=1;rounded=0;strokeWidth=2;" parent="1" edge="1">
          <mxGeometry width="50" height="50" relative="1" as="geometry">
            <mxPoint x="679" y="1040" as="sourcePoint" />
            <mxPoint x="679" y="1000" as="targetPoint" />
          </mxGeometry>
        </mxCell>
        <mxCell id="6gmVuUp7KB0H1C8zffUQ-11" value="" style="endArrow=none;html=1;rounded=0;strokeWidth=2;" parent="1" edge="1">
          <mxGeometry width="50" height="50" relative="1" as="geometry">
            <mxPoint x="679" y="1000" as="sourcePoint" />
            <mxPoint x="840" y="1000.28" as="targetPoint" />
          </mxGeometry>
        </mxCell>
        <mxCell id="6gmVuUp7KB0H1C8zffUQ-13" value="&lt;span style=&quot;font-size: 22px;&quot;&gt;inst_fifo_rd&lt;/span&gt;" style="text;html=1;align=center;verticalAlign=middle;whiteSpace=wrap;rounded=0;" parent="1" vertex="1">
          <mxGeometry x="20" y="1171.28" width="60" height="30" as="geometry" />
        </mxCell>
        <mxCell id="6gmVuUp7KB0H1C8zffUQ-14" value="" style="endArrow=none;html=1;rounded=0;strokeWidth=2;" parent="1" edge="1">
          <mxGeometry width="50" height="50" relative="1" as="geometry">
            <mxPoint x="160" y="1201" as="sourcePoint" />
            <mxPoint x="440" y="1200" as="targetPoint" />
          </mxGeometry>
        </mxCell>
        <mxCell id="6gmVuUp7KB0H1C8zffUQ-17" value="" style="endArrow=none;html=1;rounded=0;strokeWidth=2;" parent="1" edge="1">
          <mxGeometry width="50" height="50" relative="1" as="geometry">
            <mxPoint x="520" y="1201.28" as="sourcePoint" />
            <mxPoint x="520" y="1161.28" as="targetPoint" />
          </mxGeometry>
        </mxCell>
        <mxCell id="6gmVuUp7KB0H1C8zffUQ-18" value="" style="endArrow=none;html=1;rounded=0;strokeWidth=2;" parent="1" edge="1">
          <mxGeometry width="50" height="50" relative="1" as="geometry">
            <mxPoint x="520" y="1160" as="sourcePoint" />
            <mxPoint x="600" y="1160" as="targetPoint" />
          </mxGeometry>
        </mxCell>
        <mxCell id="6gmVuUp7KB0H1C8zffUQ-20" value="" style="endArrow=none;html=1;rounded=0;strokeWidth=2;" parent="1" edge="1">
          <mxGeometry width="50" height="50" relative="1" as="geometry">
            <mxPoint x="439" y="1200" as="sourcePoint" />
            <mxPoint x="520" y="1200" as="targetPoint" />
          </mxGeometry>
        </mxCell>
        <mxCell id="6gmVuUp7KB0H1C8zffUQ-21" value="" style="endArrow=none;html=1;rounded=0;strokeWidth=2;" parent="1" edge="1">
          <mxGeometry width="50" height="50" relative="1" as="geometry">
            <mxPoint x="600" y="1201.28" as="sourcePoint" />
            <mxPoint x="600" y="1161.28" as="targetPoint" />
          </mxGeometry>
        </mxCell>
        <mxCell id="6gmVuUp7KB0H1C8zffUQ-22" value="" style="endArrow=none;html=1;rounded=0;strokeWidth=2;" parent="1" edge="1">
          <mxGeometry width="50" height="50" relative="1" as="geometry">
            <mxPoint x="600" y="1201.28" as="sourcePoint" />
            <mxPoint x="681" y="1201.28" as="targetPoint" />
          </mxGeometry>
        </mxCell>
        <mxCell id="6gmVuUp7KB0H1C8zffUQ-23" value="" style="endArrow=none;html=1;rounded=0;strokeWidth=2;" parent="1" edge="1">
          <mxGeometry width="50" height="50" relative="1" as="geometry">
            <mxPoint x="680" y="1201.28" as="sourcePoint" />
            <mxPoint x="680" y="1161.28" as="targetPoint" />
          </mxGeometry>
        </mxCell>
        <mxCell id="6gmVuUp7KB0H1C8zffUQ-24" value="" style="endArrow=none;html=1;rounded=0;strokeWidth=2;" parent="1" edge="1">
          <mxGeometry width="50" height="50" relative="1" as="geometry">
            <mxPoint x="680" y="1160" as="sourcePoint" />
            <mxPoint x="840" y="1160" as="targetPoint" />
          </mxGeometry>
        </mxCell>
      </root>
    </mxGraphModel>
  </diagram>
</mxfile>
